<svg width="39" height="25" viewBox="0 0 39 25" fill="none" xmlns="http://www.w3.org/2000/svg">
<path opacity="0.07" d="M35.3059 1.0625H3.7943C2.12025 1.0625 0.840088 2.34272 0.840088 4.01686V21.743C0.840088 23.4172 2.21872 24.6974 3.7943 24.6974H35.3059C36.9799 24.6974 38.2601 23.4172 38.2601 21.743V4.01686C38.2601 2.34272 36.8815 1.0625 35.3059 1.0625Z" fill="black"/>
<path d="M35.306 2.04688C36.3892 2.04688 37.2755 2.93318 37.2755 4.01645V21.7426C37.2755 22.8259 36.3892 23.7122 35.306 23.7122H3.79442C2.71121 23.7122 1.82495 22.8259 1.82495 21.7426V4.01645C1.82495 2.93318 2.71121 2.04688 3.79442 2.04688H35.306Z" fill="#484848"/>
<path d="M9.67442 11.1739L10.4366 13.0214H8.91815L9.67442 11.1739ZM25.5041 11.2507H22.5725V12.0652H25.4568V13.2853H22.5784V14.1933H25.51V14.921L27.5553 12.7102L25.51 10.4058L25.5041 11.2507ZM11.6557 8.94634H15.5897L16.4632 10.8519L17.2727 8.94043H27.4844L28.5459 10.1123L29.6439 8.94043H34.3342L30.8689 12.7338L34.2988 16.5036H29.5385L28.477 15.3317L27.3692 16.5036H10.7173L10.2308 15.3317H9.11805L8.6306 16.5036H4.7793L8.01514 8.94043H11.3928L11.6557 8.94634ZM20.1865 10.0079H17.9817L16.5046 13.4901L14.9044 10.0079H12.7163V14.7448L10.6877 10.0079H8.72514L6.37949 15.4361H7.91076L8.39722 14.2642H10.9536L11.4401 15.4361H14.1185V11.5609L15.8428 15.442H17.0147L18.7281 11.5728V15.443H20.1638L20.1865 10.0079ZM29.3839 12.7338L31.8763 10.0079H30.0821L28.5055 11.7077L26.9812 10.0079H21.1771V15.442H26.8985L28.4878 13.7304L30.0122 15.442H31.8586L29.3839 12.7338Z" fill="white"/>
</svg>
