<svg width="38" height="25" viewBox="0 0 38 25" fill="none" xmlns="http://www.w3.org/2000/svg">
<path opacity="0.07" d="M34.5759 1.0625H3.06432C1.39027 1.0625 0.110107 2.34272 0.110107 4.01686V21.743C0.110107 23.4172 1.48874 24.6974 3.06432 24.6974H34.5759C36.2499 24.6974 37.5301 23.4172 37.5301 21.743V4.01686C37.5301 2.34272 36.1515 1.0625 34.5759 1.0625Z" fill="black"/>
<path d="M34.576 2.04688C35.6592 2.04688 36.5455 2.93318 36.5455 4.01645V21.7426C36.5455 22.8259 35.6592 23.7122 34.576 23.7122H3.06444C1.98123 23.7122 1.09497 22.8259 1.09497 21.7426V4.01645C1.09497 2.93318 1.98123 2.04688 3.06444 2.04688H34.576Z" fill="white"/>
<path d="M11.9271 12.8798V16.5235C11.9271 16.819 11.7301 16.819 11.4347 16.7205C9.56357 15.9327 8.4803 13.4707 9.16965 11.4027C9.56357 10.3194 10.3514 9.43308 11.4347 9.03917C11.8286 8.84221 11.9271 8.94069 11.9271 9.23612V12.8798ZM13.8966 12.8798V9.23612C13.8966 8.94069 13.8966 8.94069 14.1921 9.03917C16.2601 9.827 17.3434 12.289 16.5556 14.357C16.1616 15.4403 15.3738 16.3266 14.2905 16.7205C13.8966 16.9175 13.8966 16.819 13.8966 16.5235V12.8798ZM20.9871 5.98633H12.9118C16.654 5.98633 19.6084 9.03917 19.6084 12.8798C19.6084 16.7205 16.654 19.7733 12.9118 19.7733H20.9871C24.7293 19.7733 27.6836 16.7205 27.6836 12.8798C27.6836 9.03917 24.7293 5.98633 20.9871 5.98633Z" fill="#7B7B7B"/>
</svg>
