<svg width="38" height="25" viewBox="0 0 38 25" fill="none" xmlns="http://www.w3.org/2000/svg">
<path opacity="0.07" d="M34.7258 1.0625H3.21422C1.54017 1.0625 0.26001 2.34272 0.26001 4.01686V21.743C0.26001 23.4172 1.63864 24.6974 3.21422 24.6974H34.7258C36.3998 24.6974 37.68 23.4172 37.68 21.743V4.01686C37.68 2.34272 36.3014 1.0625 34.7258 1.0625Z" fill="black"/>
<path d="M34.7259 2.04688C35.8091 2.04688 36.6954 2.93318 36.6954 4.01645V21.7426C36.6954 22.8259 35.8091 23.7122 34.7259 23.7122H3.21435C2.13114 23.7122 1.24487 22.8259 1.24487 21.7426V4.01645C1.24487 2.93318 2.13114 2.04688 3.21435 2.04688H34.7259Z" fill="white"/>
<path d="M36.696 17.7549V21.7433C36.696 22.8265 35.8097 23.7128 34.7265 23.7128H23.1335C30.9094 21.9255 34.9933 19.1818 36.696 17.7549Z" fill="#A7A7A7"/>
<path d="M9.12256 11.8955H28.8173V13.8651H9.12256V11.8955Z" fill="#494949"/>
<path d="M21.9246 12.8801C21.9246 14.5543 20.6444 15.8345 18.9702 15.8345C17.2961 15.8345 16.0159 14.4558 16.0159 12.8801C16.0159 11.3045 17.3946 9.92578 18.9702 9.92578C20.6444 9.92578 21.9246 11.206 21.9246 12.8801Z" fill="#A7A7A7"/>
</svg>
