<svg width="39" height="25" viewBox="0 0 39 25" fill="none" xmlns="http://www.w3.org/2000/svg">
<path opacity="0.07" d="M35.1457 1.0625H3.63414C1.96009 1.0625 0.679932 2.34272 0.679932 4.01686V21.743C0.679932 23.4172 2.05856 24.6974 3.63414 24.6974H35.1457C36.8198 24.6974 38.0999 23.4172 38.0999 21.743V4.01686C38.0999 2.34272 36.7213 1.0625 35.1457 1.0625Z" fill="black"/>
<path d="M35.1458 2.04688C36.2291 2.04688 37.1153 2.93318 37.1153 4.01645V21.7426C37.1153 22.8259 36.2291 23.7122 35.1458 23.7122H3.63427C2.55106 23.7122 1.66479 22.8259 1.66479 21.7426V4.01645C1.66479 2.93318 2.55106 2.04688 3.63427 2.04688H35.1458Z" fill="white"/>
<path fill-rule="evenodd" clip-rule="evenodd" d="M12.0044 5.98633H15.4512V17.3114C15.4512 17.9643 15.1918 18.5905 14.7301 19.0523C14.2684 19.514 13.6422 19.7733 12.9892 19.7733H9.54248V8.4483C9.54248 7.79534 9.80187 7.16913 10.2636 6.70742C10.7253 6.24571 11.3515 5.98633 12.0044 5.98633Z" fill="#7B7B7B"/>
<path fill-rule="evenodd" clip-rule="evenodd" d="M18.8978 5.98633H22.3445V17.3114C22.3445 17.9643 22.0851 18.5905 21.6234 19.0523C21.1617 19.514 20.5355 19.7733 19.8825 19.7733H16.4358V8.4483C16.4358 7.79534 16.6952 7.16913 17.1569 6.70742C17.6186 6.24571 18.2448 5.98633 18.8978 5.98633Z" fill="#484848"/>
<path fill-rule="evenodd" clip-rule="evenodd" d="M25.7908 5.98633H29.2376V17.3114C29.2376 17.9643 28.9782 18.5905 28.5165 19.0523C28.0548 19.514 27.4286 19.7733 26.7756 19.7733H23.3289V8.4483C23.3289 7.79534 23.5882 7.16913 24.05 6.70742C24.5117 6.24571 25.1379 5.98633 25.7908 5.98633Z" fill="#A7A7A7"/>
<path d="M11.2707 15.3419C10.2269 15.3419 9.18112 15.0426 8.65527 14.3699L9.42337 13.7042C9.49033 14.82 12.9143 14.9254 12.9143 13.5171V10.418H14.6888V13.5171C14.6888 14.234 14.1235 14.819 13.1398 15.1243C12.6809 15.2661 11.7956 15.3419 11.2707 15.3419ZM19.2629 15.3419C18.5991 15.3419 17.896 15.2366 17.3279 14.9815C16.3943 14.563 16.0359 13.7938 16.0477 12.816C16.0595 11.8174 16.477 11.0611 17.4933 10.6839C18.7922 10.2013 20.7853 10.4269 21.3594 10.9498V11.907C20.7961 11.3939 19.4312 11.0227 18.4849 11.454C17.9985 11.6766 17.7592 12.357 17.7523 12.88C17.7464 13.4314 17.9935 14.1129 18.4849 14.3542C19.4234 14.8141 20.8384 14.3936 21.3594 13.9199V14.9145C21.0068 15.1657 20.1255 15.3419 19.2629 15.3419ZM27.8094 12.7943C28.1737 12.5629 28.3825 12.2359 28.3825 11.8046C28.3825 11.3732 28.2683 11.128 28.0398 10.8799C27.837 10.676 27.4687 10.418 26.8207 10.418H23.3288V15.3419H26.8207C27.5061 15.3419 27.901 15.1154 28.1156 14.9332C28.3943 14.687 28.5351 14.4113 28.5351 13.9879C28.5351 13.5634 28.3825 13.0937 27.8094 12.7943ZM25.9325 12.5176H24.5263V11.0955H25.9985C26.9399 11.0955 26.928 12.5176 25.9325 12.5176ZM26.2161 14.6417H24.5263V13.1518H26.2161C27.187 13.1518 27.2826 14.6417 26.2161 14.6417Z" fill="white"/>
</svg>
