<svg width="38" height="25" viewBox="0 0 38 25" fill="none" xmlns="http://www.w3.org/2000/svg">
<path opacity="0.07" d="M34.8857 1.0625H3.37413C1.70008 1.0625 0.419922 2.34272 0.419922 4.01686V21.743C0.419922 23.4172 1.79855 24.6974 3.37413 24.6974H34.8857C36.5598 24.6974 37.8399 23.4172 37.8399 21.743V4.01686C37.8399 2.34272 36.4613 1.0625 34.8857 1.0625Z" fill="black"/>
<path d="M34.8858 2.04688C35.969 2.04688 36.8553 2.93318 36.8553 4.01645V21.7426C36.8553 22.8259 35.969 23.7122 34.8858 23.7122H3.37426C2.29105 23.7122 1.40479 22.8259 1.40479 21.7426V4.01645C1.40479 2.93318 2.29105 2.04688 3.37426 2.04688H34.8858Z" fill="white"/>
<path d="M15.1914 19.7733C18.9985 19.7733 22.0849 16.687 22.0849 12.8798C22.0849 9.07266 18.9985 5.98633 15.1914 5.98633C11.3842 5.98633 8.29785 9.07266 8.29785 12.8798C8.29785 16.687 11.3842 19.7733 15.1914 19.7733Z" fill="black"/>
<path d="M23.0693 19.7733C26.8765 19.7733 29.9628 16.687 29.9628 12.8798C29.9628 9.07266 26.8765 5.98633 23.0693 5.98633C19.2621 5.98633 16.1758 9.07266 16.1758 12.8798C16.1758 16.687 19.2621 19.7733 23.0693 19.7733Z" fill="#A7A7A7"/>
<path d="M22.0845 12.8799C22.0845 10.5164 20.9028 8.44835 19.1301 7.2666C17.3575 8.54682 16.1758 10.6149 16.1758 12.8799C16.1758 15.1449 17.3575 17.3114 19.1301 18.4932C20.9028 17.3114 22.0845 15.2434 22.0845 12.8799Z" fill="#484848"/>
</svg>
