<svg width="38" height="25" viewBox="0 0 38 25" fill="none" xmlns="http://www.w3.org/2000/svg">
<path opacity="0.07" d="M34.9958 1.0625H3.48424C1.81019 1.0625 0.530029 2.34272 0.530029 4.01686V21.743C0.530029 23.4172 1.90866 24.6974 3.48424 24.6974H34.9958C36.6699 24.6974 37.95 23.4172 37.95 21.743V4.01686C37.95 2.34272 36.5714 1.0625 34.9958 1.0625Z" fill="black"/>
<path d="M34.9959 2.04688C36.0792 2.04688 36.9654 2.93318 36.9654 4.01645V21.7426C36.9654 22.8259 36.0792 23.7122 34.9959 23.7122H3.48437C2.40116 23.7122 1.51489 22.8259 1.51489 21.7426V4.01645C1.51489 2.93318 2.40116 2.04688 3.48437 2.04688H34.9959Z" fill="white"/>
<path d="M24.0658 9.23613C24.2628 8.25134 24.0658 7.56199 23.4749 6.97112C22.8841 6.28176 21.8008 5.98633 20.4221 5.98633H16.3845C16.089 5.98633 15.8921 6.18329 15.7936 6.47872L14.3164 16.4251C14.3164 16.622 14.4149 16.819 14.6118 16.819H17.2708L17.6647 13.4707L19.4373 11.3042L24.0658 9.23613Z" fill="#484848"/>
<path d="M24.0657 9.23633L23.8687 9.43329C23.3763 12.1907 21.7022 13.1755 19.3387 13.1755H18.2554C17.96 13.1755 17.763 13.3724 17.6645 13.6679L17.0737 17.5085L16.8767 18.4933C16.8767 18.6903 16.9752 18.8872 17.1721 18.8872H19.2402C19.5356 18.8872 19.7326 18.6903 19.7326 18.4933V18.3948L20.1265 16.0314V15.9329C20.1265 15.7359 20.4219 15.539 20.6189 15.539H20.9143C22.9824 15.539 24.558 14.7511 24.952 12.3876C25.1489 11.4029 25.0504 10.615 24.558 10.0242C24.4596 9.53176 24.2626 9.33481 24.0657 9.23633Z" fill="#7B7B7B"/>
<path d="M23.4748 9.03958C23.3763 8.9411 23.2778 8.9411 23.1794 8.9411C23.0809 8.9411 22.9824 8.9411 22.8839 8.84262C22.5885 8.74414 22.1946 8.74414 21.8007 8.74414H18.8463C18.7478 8.74414 18.6493 8.74414 18.6493 8.84262C18.4524 8.9411 18.3539 9.03958 18.3539 9.23653L17.6646 13.5696V13.6681C17.6646 13.3726 17.96 13.1757 18.2554 13.1757H19.5356C21.9976 13.1757 23.5733 12.1909 24.0657 9.43349V9.23653C23.9672 9.13806 23.7702 9.03958 23.5733 9.03958H23.4748Z" fill="black"/>
</svg>
