<svg width="38" height="25" viewBox="0 0 38 25" fill="none" xmlns="http://www.w3.org/2000/svg">
<path opacity="0.07" d="M34.4658 1.0625H2.95421C1.28016 1.0625 0 2.34272 0 4.01686V21.743C0 23.4172 1.37863 24.6974 2.95421 24.6974H34.4658C36.1398 24.6974 37.42 23.4172 37.42 21.743V4.01686C37.42 2.34272 36.0414 1.0625 34.4658 1.0625Z" fill="black"/>
<path d="M34.4659 2.04688C35.5491 2.04688 36.4354 2.93318 36.4354 4.01645V21.7426C36.4354 22.8259 35.5491 23.7122 34.4659 23.7122H2.95434C1.87113 23.7122 0.984863 22.8259 0.984863 21.7426V4.01645C0.984863 2.93318 1.87113 2.04688 2.95434 2.04688H34.4659Z" fill="white"/>
<path d="M27.868 11.0085H27.5725C27.1786 11.9933 26.8832 12.4857 26.5878 13.9628H28.4588C28.1634 12.4857 28.1634 11.7963 27.868 11.0085ZM30.7237 16.8187H29.0496C28.9512 16.8187 28.9512 16.8187 28.8527 16.7202L28.6557 15.8339L28.5573 15.637H26.1939C26.0954 15.637 25.997 15.637 25.997 15.8339L25.7015 16.7202C25.7015 16.8187 25.6031 16.8187 25.6031 16.8187H23.5351L23.7321 16.3263L26.5878 9.62978C26.5878 9.13739 26.8832 8.94043 27.3756 8.94043H28.8527C28.9512 8.94043 29.0496 8.94043 29.0496 9.13739L30.4283 15.5385C30.5267 15.9324 30.6252 16.2279 30.6252 16.6218C30.7237 16.7202 30.7237 16.7202 30.7237 16.8187ZM17.5282 16.5233L17.9221 14.7507C18.0206 14.7507 18.1191 14.8492 18.1191 14.8492C18.8084 15.1446 19.4977 15.3415 20.187 15.2431C20.384 15.2431 20.6794 15.1446 20.8763 15.0461C21.3687 14.8492 21.3687 14.3568 20.9748 13.9628C20.7778 13.7659 20.4824 13.6674 20.187 13.4704C19.7931 13.2735 19.3992 13.0765 19.1038 12.7811C17.9221 11.7963 18.316 10.4176 19.0053 9.72826C19.5962 9.33434 19.8916 8.94043 20.6794 8.94043C21.8611 8.94043 23.1412 8.94043 23.7321 9.13739H23.8305C23.7321 9.72826 23.6336 10.2207 23.4366 10.8115C22.9443 10.6146 22.4519 10.4176 21.9595 10.4176C21.6641 10.4176 21.3687 10.4176 21.0733 10.5161C20.8763 10.5161 20.7778 10.6146 20.6794 10.713C20.4824 10.91 20.4824 11.2054 20.6794 11.4024L21.1717 11.7963C21.5656 11.9933 21.9595 12.1902 22.255 12.3872C22.7473 12.6826 23.2397 13.175 23.3382 13.7659C23.5351 14.6522 23.2397 15.44 22.4519 16.0309C21.9595 16.4248 21.7626 16.6218 21.0733 16.6218C19.6946 16.6218 18.6114 16.7202 17.7252 16.4248C17.6267 16.6218 17.6267 16.6218 17.5282 16.5233ZM14.0816 16.8187C14.1801 16.1294 14.1801 16.1294 14.2786 15.8339C14.771 13.6674 15.2633 11.4024 15.6572 9.23587C15.7557 9.03891 15.7557 8.94043 15.9526 8.94043H17.7252C17.5282 10.1222 17.3313 11.0085 17.0358 12.0917C16.7404 13.5689 16.445 15.0461 16.0511 16.5233C16.0511 16.7202 15.9526 16.7202 15.7557 16.7202M4.92358 9.13739C4.92358 9.03891 5.12053 8.94043 5.21901 8.94043H8.56711C9.05948 8.94043 9.45337 9.23587 9.55185 9.72826L10.4381 14.0613C10.4381 14.1598 10.4381 14.1598 10.5366 14.2583C10.5366 14.1598 10.6351 14.1598 10.6351 14.1598L12.703 9.13739C12.6045 9.03891 12.703 8.94043 12.8015 8.94043H14.8694C14.8694 9.03891 14.8694 9.03891 14.771 9.13739L11.7183 16.3263C11.6198 16.5233 11.6198 16.6218 11.5213 16.7202C11.4228 16.8187 11.2259 16.7202 11.029 16.7202H9.55185C9.45337 16.7202 9.3549 16.7202 9.3549 16.5233L7.77932 10.4176C7.58237 10.2207 7.28695 9.92522 6.89306 9.82674C6.30222 9.5313 5.219 9.33434 5.02206 9.33434L4.92358 9.13739Z" fill="#292929"/>
</svg>
