<svg width="153" height="25" viewBox="0 0 153 25" fill="none" xmlns="http://www.w3.org/2000/svg">
<path d="M0.016 1.6H5.712V19.008H17.136V24H0.016V1.6ZM19.1685 15.36V1.6H24.8645V14.944C24.8645 18.144 26.4325 19.616 29.6325 19.616C32.8005 19.616 34.3685 18.144 34.3685 14.944V1.6H40.0645V15.36C40.0645 21.28 36.2565 24.608 29.6325 24.608C23.0085 24.608 19.1685 21.28 19.1685 15.36ZM43.9223 1.6H50.1623L57.8743 16.32H57.9383L65.6183 1.6H71.8583V24H66.2263V10.56H66.1623L58.9623 24H56.8503L49.6503 10.56H49.5863V24H43.9223V1.6ZM75.891 1.6H81.587V24H75.891V1.6ZM83.3057 1.6H89.5458L96.2978 17.216H96.3618L103.114 1.6H109.354L99.1778 24H93.4818L83.3057 1.6ZM123.416 20.672H112.664L111.288 24H105.368L115.384 1.6H120.664L130.68 24H124.792L123.416 20.672ZM121.432 15.84L118.072 7.68H118.008L114.648 15.84H121.432ZM129.861 12.8C129.765 5.984 134.949 0.895998 141.829 0.991999C147.237 0.991999 151.525 4.064 152.549 8.768L147.269 10.208C146.533 7.52 144.613 5.984 141.829 5.984C138.085 5.984 135.557 8.736 135.557 12.8C135.557 16.864 138.085 19.616 141.829 19.616C144.677 19.616 146.725 17.984 147.397 14.944L152.741 16.256C151.781 21.472 147.429 24.608 141.829 24.608C134.949 24.704 129.765 19.616 129.861 12.8Z" fill="white"/>
</svg>
