<svg width="24" height="25" viewBox="0 0 24 25" fill="none" xmlns="http://www.w3.org/2000/svg">
<path fill-rule="evenodd" clip-rule="evenodd" d="M8 5.02344C8 3.22844 9.684 1.52344 12 1.52344C14.316 1.52344 16 3.22844 16 5.02344H8ZM6.5 5.02344C6.5 2.26244 9 0.0234375 12 0.0234375C15 0.0234375 17.5 2.26244 17.5 5.02344H20C20.5304 5.02344 21.0391 5.23415 21.4142 5.60922C21.7893 5.9843 22 6.493 22 7.02344V21.0234C22 21.5539 21.7893 22.0626 21.4142 22.4377C21.0391 22.8127 20.5304 23.0234 20 23.0234H4C3.46957 23.0234 2.96086 22.8127 2.58579 22.4377C2.21071 22.0626 2 21.5539 2 21.0234V7.02344C2 6.493 2.21071 5.9843 2.58579 5.60922C2.96086 5.23415 3.46957 5.02344 4 5.02344H6.5ZM17.5 6.52344H20C20.1326 6.52344 20.2598 6.57612 20.3536 6.66988C20.4473 6.76365 20.5 6.89083 20.5 7.02344V21.0234C20.5 21.156 20.4473 21.2832 20.3536 21.377C20.2598 21.4708 20.1326 21.5234 20 21.5234H4C3.86739 21.5234 3.74021 21.4708 3.64645 21.377C3.55268 21.2832 3.5 21.156 3.5 21.0234V7.02344C3.5 6.89083 3.55268 6.76365 3.64645 6.66988C3.74021 6.57612 3.86739 6.52344 4 6.52344H17.5Z" fill="#8D8B8B"/>
</svg>
