<svg width="68" height="68" viewBox="0 0 68 68" fill="none" xmlns="http://www.w3.org/2000/svg">
<g clip-path="url(#clip0_363_1429)">
<path d="M33.6949 0C27.0297 0 20.5141 1.97647 14.9722 5.67947C9.43023 9.38248 5.11082 14.6457 2.56015 20.8036C0.00947475 26.9614 -0.657898 33.7374 0.642424 40.2745C1.94275 46.8117 5.15236 52.8165 9.86539 57.5295C14.5784 62.2425 20.5832 65.4521 27.1203 66.7525C33.6575 68.0528 40.4334 67.3854 46.5913 64.8347C52.7492 62.2841 58.0124 57.9647 61.7154 52.4227C65.4184 46.8808 67.3949 40.3652 67.3949 33.7C67.3854 24.7651 63.8318 16.1989 57.5139 9.88103C51.1959 3.56311 42.6298 0.00952941 33.6949 0ZM33.6949 63.149C27.8703 63.1488 22.1766 61.4214 17.3337 58.1854C12.4908 54.9493 8.71632 50.3498 6.48744 44.9686C4.25857 39.5873 3.67544 33.666 4.81181 27.9533C5.94818 22.2407 8.753 16.9933 12.8716 12.8747C16.9902 8.75611 22.2376 5.95129 27.9502 4.81492C33.6629 3.67856 39.5842 4.26168 44.9655 6.49056C50.3467 8.71943 54.9462 12.494 58.1823 17.3368C61.4183 22.1797 63.1457 27.8734 63.1459 33.698C63.1369 41.5061 60.0311 48.9919 54.51 54.5131C48.9888 60.0342 41.503 63.14 33.6949 63.149Z" fill="url(#paint0_linear_363_1429)"/>
<path fill-rule="evenodd" clip-rule="evenodd" d="M34.0001 15.9075L34.8968 17.7241L39.5569 27.1649L49.9781 28.6881L51.9819 28.981L50.5312 30.3939L42.9913 37.7378L44.7707 48.1127L45.1133 50.1101L43.3197 49.1668L34.0001 44.2658L24.6806 49.1668L22.8869 50.1101L23.2295 48.1127L25.0089 37.7378L17.469 30.3939L16.0184 28.981L18.0221 28.6881L28.4433 27.1649L33.1034 17.7241L34.0001 15.9075ZM34.0001 20.426L30.0043 28.521L29.7719 28.9919L29.2522 29.0679L20.3152 30.3742L26.7812 36.6721L27.158 37.039L27.0691 37.5575L25.5433 46.4534L33.5347 42.2508L34.0001 42.0061L34.4656 42.2508L42.4569 46.4534L40.9312 37.5575L40.8423 37.0391L41.219 36.6721L47.685 30.3742L38.748 29.0679L38.2283 28.9919L37.9959 28.521L34.0001 20.426Z" fill="url(#paint1_linear_363_1429)"/>
</g>
<defs>
<linearGradient id="paint0_linear_363_1429" x1="67.3949" y1="33.7" x2="13.8789" y2="33.7" gradientUnits="userSpaceOnUse">
<stop stop-color="#EFCC95"/>
<stop offset="1" stop-color="#99703B"/>
</linearGradient>
<linearGradient id="paint1_linear_363_1429" x1="50.8335" y1="33.2242" x2="24.1019" y2="33.2242" gradientUnits="userSpaceOnUse">
<stop stop-color="#EFCC95"/>
<stop offset="1" stop-color="#99703B"/>
</linearGradient>
<clipPath id="clip0_363_1429">
<rect width="68" height="68" fill="white"/>
</clipPath>
</defs>
</svg>
