<svg width="68" height="68" viewBox="0 0 68 68" fill="none" xmlns="http://www.w3.org/2000/svg">
<g clip-path="url(#clip0_363_1384)">
<path d="M33.695 0C27.0298 0 20.5142 1.97647 14.9723 5.67947C9.43036 9.38248 5.11094 14.6457 2.56027 20.8036C0.00959682 26.9614 -0.657776 33.7374 0.642546 40.2745C1.94287 46.8117 5.15248 52.8165 9.86551 57.5295C14.5785 62.2425 20.5833 65.4521 27.1205 66.7525C33.6576 68.0528 40.4336 67.3854 46.5914 64.8347C52.7493 62.2841 58.0125 57.9647 61.7155 52.4227C65.4185 46.8808 67.395 40.3652 67.395 33.7C67.3855 24.7651 63.8319 16.1989 57.514 9.88103C51.1961 3.56311 42.6299 0.00952941 33.695 0ZM33.695 63.149C27.8704 63.1488 22.1767 61.4214 17.3338 58.1854C12.491 54.9493 8.71644 50.3498 6.48757 44.9686C4.25869 39.5873 3.67557 33.666 4.81193 27.9533C5.9483 22.2407 8.75312 16.9933 12.8717 12.8747C16.9903 8.75611 22.2377 5.95129 27.9504 4.81492C33.663 3.67856 39.5843 4.26168 44.9656 6.49056C50.3468 8.71943 54.9463 12.494 58.1824 17.3368C61.4185 22.1797 63.1458 27.8734 63.146 33.698C63.137 41.5061 60.0313 48.9919 54.5101 54.5131C48.9889 60.0342 41.5031 63.14 33.695 63.149Z" fill="url(#paint0_linear_363_1384)"/>
<g clip-path="url(#clip1_363_1384)">
<path fill-rule="evenodd" clip-rule="evenodd" d="M32.2827 14.6514C31.5578 15.0047 27.4321 16.9668 23.1145 19.0115C18.7969 21.0561 15.2057 22.8063 15.1339 22.9006C15.0298 23.0377 15.0029 25.067 15.0004 32.9792C14.9973 42.2714 15.0082 42.8989 15.1746 43.0914C15.4609 43.4225 33.8324 52.0679 34.1045 51.9996C34.5576 51.8858 52.5643 43.301 52.7617 43.1047C52.9613 42.9062 52.9649 42.75 52.9913 33.1123C53.0143 24.7011 52.9973 23.2814 52.8705 23.0359C52.7071 22.7197 53.3436 23.0333 41.1219 17.2464C36.3192 14.9724 34.1495 13.9938 33.9238 14C33.746 14.0049 33.0075 14.298 32.2827 14.6514ZM31.9611 16.4597C30.8921 16.9721 29.9965 17.4139 29.971 17.4415C29.9453 17.4691 33.6251 19.238 38.1481 21.3724L46.3717 25.2531L48.2995 24.3337C49.3597 23.8281 50.2606 23.3816 50.3016 23.3415C50.3591 23.2849 34.5294 15.7227 34.0238 15.5653C33.9583 15.5449 33.0301 15.9474 31.9611 16.4597ZM25.8576 19.3506C24.4908 19.9981 23.6545 20.4473 23.7351 20.4906C23.8082 20.53 27.5036 22.2814 31.9471 24.3827L40.0262 28.2033L42.2373 27.0947L44.4484 25.9862L43.8908 25.7325C43.5841 25.593 42.8542 25.2517 42.2687 24.9738C38.0504 22.9726 29.787 19.0624 29.032 18.7104L28.1132 18.282L25.8576 19.3506ZM19.6355 22.2866C18.4787 22.8249 17.5663 23.2984 17.6079 23.3385C17.6496 23.3787 21.3464 25.1493 25.8229 27.2731L33.9621 31.1347L36.1392 30.1058C37.3365 29.54 38.3045 29.0668 38.2902 29.0545C38.2093 28.9843 22.0171 21.3678 21.8911 21.3405C21.8074 21.3223 20.7924 21.7481 19.6355 22.2866ZM16.5212 33.3347L16.5246 42.1477L24.7962 46.0541C29.3455 48.2026 33.1078 49.9757 33.1568 49.9943C33.2075 50.0135 33.2458 46.2446 33.2458 41.245V32.4619L32.8149 32.2413C32.4243 32.0412 16.9431 24.7022 16.6446 24.5756C16.5437 24.5328 16.5186 26.3223 16.5212 33.3347ZM49.1626 25.611L46.983 26.6592L46.9323 29.9031C46.8689 33.9564 47.0326 33.6276 45.1249 33.5333L43.7738 33.4665L42.1046 34.9407C40.6743 36.2039 40.3874 36.4149 40.1005 36.4149C39.889 36.4149 39.6944 36.3363 39.5725 36.2015C39.395 36.0053 39.3753 35.7573 39.3287 33.126L39.278 30.2639L37.0222 31.3332L34.7665 32.4025V41.2055V50.0086L35.1974 49.8042C35.4343 49.6918 39.1867 47.9183 43.536 45.8629L51.4437 42.1261L51.4697 33.3347C51.4839 28.4996 51.4611 24.5479 51.419 24.5532C51.3768 24.5585 50.3615 25.0345 49.1626 25.611ZM43.0291 28.497L40.9001 29.5023L40.8727 31.7619L40.8454 34.0216L41.1262 33.7636C43.2343 31.8272 43.1095 31.8897 44.5751 32.0368L45.3102 32.1105V29.7983C45.3102 28.5265 45.276 27.4873 45.2341 27.489C45.1923 27.4905 44.2 27.9441 43.0291 28.497ZM22.9544 37.8367C22.7129 38.1038 22.7177 38.6098 22.964 38.8403C23.2115 39.0719 29.59 42.0969 29.8309 42.0969C29.9298 42.0969 30.1227 41.9848 30.2596 41.8478C30.5764 41.5308 30.5853 41.0867 30.2804 40.8071C29.9003 40.4588 23.8332 37.6325 23.4656 37.6325C23.2671 37.6325 23.0667 37.7125 22.9544 37.8367ZM22.9544 41.388C22.7134 41.6546 22.7182 42.1597 22.964 42.3979C23.2323 42.6577 29.5586 45.6482 29.8401 45.6482C30.1402 45.6482 30.5085 45.2455 30.5085 44.9173C30.5085 44.7736 30.4287 44.5646 30.3311 44.4529C30.0973 44.1851 23.7318 41.1838 23.3977 41.1838C23.2555 41.1838 23.0559 41.2757 22.9544 41.388Z" fill="white"/>
<path fill-rule="evenodd" clip-rule="evenodd" d="M32.2827 14.6514C31.5578 15.0047 27.4321 16.9668 23.1145 19.0115C18.7969 21.0561 15.2057 22.8063 15.1339 22.9006C15.0298 23.0377 15.0029 25.067 15.0004 32.9792C14.9973 42.2714 15.0082 42.8989 15.1746 43.0914C15.4609 43.4225 33.8324 52.0679 34.1045 51.9996C34.5576 51.8858 52.5643 43.301 52.7617 43.1047C52.9613 42.9062 52.9649 42.75 52.9913 33.1123C53.0143 24.7011 52.9973 23.2814 52.8705 23.0359C52.7071 22.7197 53.3436 23.0333 41.1219 17.2464C36.3192 14.9724 34.1495 13.9938 33.9238 14C33.746 14.0049 33.0075 14.298 32.2827 14.6514ZM31.9611 16.4597C30.8921 16.9721 29.9965 17.4139 29.971 17.4415C29.9453 17.4691 33.6251 19.238 38.1481 21.3724L46.3717 25.2531L48.2995 24.3337C49.3597 23.8281 50.2606 23.3816 50.3016 23.3415C50.3591 23.2849 34.5294 15.7227 34.0238 15.5653C33.9583 15.5449 33.0301 15.9474 31.9611 16.4597ZM25.8576 19.3506C24.4908 19.9981 23.6545 20.4473 23.7351 20.4906C23.8082 20.53 27.5036 22.2814 31.9471 24.3827L40.0262 28.2033L42.2373 27.0947L44.4484 25.9862L43.8908 25.7325C43.5841 25.593 42.8542 25.2517 42.2687 24.9738C38.0504 22.9726 29.787 19.0624 29.032 18.7104L28.1132 18.282L25.8576 19.3506ZM19.6355 22.2866C18.4787 22.8249 17.5663 23.2984 17.6079 23.3385C17.6496 23.3787 21.3464 25.1493 25.8229 27.2731L33.9621 31.1347L36.1392 30.1058C37.3365 29.54 38.3045 29.0668 38.2902 29.0545C38.2093 28.9843 22.0171 21.3678 21.8911 21.3405C21.8074 21.3223 20.7924 21.7481 19.6355 22.2866ZM16.5212 33.3347L16.5246 42.1477L24.7962 46.0541C29.3455 48.2026 33.1078 49.9757 33.1568 49.9943C33.2075 50.0135 33.2458 46.2446 33.2458 41.245V32.4619L32.8149 32.2413C32.4243 32.0412 16.9431 24.7022 16.6446 24.5756C16.5437 24.5328 16.5186 26.3223 16.5212 33.3347ZM49.1626 25.611L46.983 26.6592L46.9323 29.9031C46.8689 33.9564 47.0326 33.6276 45.1249 33.5333L43.7738 33.4665L42.1046 34.9407C40.6743 36.2039 40.3874 36.4149 40.1005 36.4149C39.889 36.4149 39.6944 36.3363 39.5725 36.2015C39.395 36.0053 39.3753 35.7573 39.3287 33.126L39.278 30.2639L37.0222 31.3332L34.7665 32.4025V41.2055V50.0086L35.1974 49.8042C35.4343 49.6918 39.1867 47.9183 43.536 45.8629L51.4437 42.1261L51.4697 33.3347C51.4839 28.4996 51.4611 24.5479 51.419 24.5532C51.3768 24.5585 50.3615 25.0345 49.1626 25.611ZM43.0291 28.497L40.9001 29.5023L40.8727 31.7619L40.8454 34.0216L41.1262 33.7636C43.2343 31.8272 43.1095 31.8897 44.5751 32.0368L45.3102 32.1105V29.7983C45.3102 28.5265 45.276 27.4873 45.2341 27.489C45.1923 27.4905 44.2 27.9441 43.0291 28.497ZM22.9544 37.8367C22.7129 38.1038 22.7177 38.6098 22.964 38.8403C23.2115 39.0719 29.59 42.0969 29.8309 42.0969C29.9298 42.0969 30.1227 41.9848 30.2596 41.8478C30.5764 41.5308 30.5853 41.0867 30.2804 40.8071C29.9003 40.4588 23.8332 37.6325 23.4656 37.6325C23.2671 37.6325 23.0667 37.7125 22.9544 37.8367ZM22.9544 41.388C22.7134 41.6546 22.7182 42.1597 22.964 42.3979C23.2323 42.6577 29.5586 45.6482 29.8401 45.6482C30.1402 45.6482 30.5085 45.2455 30.5085 44.9173C30.5085 44.7736 30.4287 44.5646 30.3311 44.4529C30.0973 44.1851 23.7318 41.1838 23.3977 41.1838C23.2555 41.1838 23.0559 41.2757 22.9544 41.388Z" fill="url(#paint1_linear_363_1384)"/>
</g>
</g>
<defs>
<linearGradient id="paint0_linear_363_1384" x1="67.395" y1="33.7" x2="13.879" y2="33.7" gradientUnits="userSpaceOnUse">
<stop stop-color="#EFCC95"/>
<stop offset="1" stop-color="#99703B"/>
</linearGradient>
<linearGradient id="paint1_linear_363_1384" x1="53" y1="33" x2="22.8278" y2="33" gradientUnits="userSpaceOnUse">
<stop stop-color="#EFCC95"/>
<stop offset="1" stop-color="#99703B"/>
</linearGradient>
<clipPath id="clip0_363_1384">
<rect width="68" height="68" fill="white"/>
</clipPath>
<clipPath id="clip1_363_1384">
<rect width="38" height="38" fill="white" transform="translate(15 14)"/>
</clipPath>
</defs>
</svg>
