<svg width="68" height="68" viewBox="0 0 68 68" fill="none" xmlns="http://www.w3.org/2000/svg">
<g clip-path="url(#clip0_363_1419)">
<path d="M33.695 0C27.0298 0 20.5142 1.97647 14.9723 5.67947C9.43036 9.38248 5.11094 14.6457 2.56027 20.8036C0.00959682 26.9614 -0.657776 33.7374 0.642546 40.2745C1.94287 46.8117 5.15248 52.8165 9.86551 57.5295C14.5785 62.2425 20.5833 65.4521 27.1205 66.7525C33.6576 68.0528 40.4336 67.3854 46.5914 64.8347C52.7493 62.2841 58.0125 57.9647 61.7155 52.4227C65.4185 46.8808 67.395 40.3652 67.395 33.7C67.3855 24.7651 63.8319 16.1989 57.514 9.88103C51.1961 3.56311 42.6299 0.00952941 33.695 0ZM33.695 63.149C27.8704 63.1488 22.1767 61.4214 17.3338 58.1854C12.491 54.9493 8.71644 50.3498 6.48757 44.9686C4.25869 39.5873 3.67557 33.666 4.81193 27.9533C5.9483 22.2407 8.75312 16.9933 12.8717 12.8747C16.9903 8.75611 22.2377 5.95129 27.9504 4.81492C33.663 3.67856 39.5843 4.26168 44.9656 6.49056C50.3468 8.71943 54.9463 12.494 58.1824 17.3368C61.4185 22.1797 63.1458 27.8734 63.146 33.698C63.137 41.5061 60.0313 48.9919 54.5101 54.5131C48.9889 60.0342 41.5031 63.14 33.695 63.149Z" fill="url(#paint0_linear_363_1419)"/>
<path fill-rule="evenodd" clip-rule="evenodd" d="M33.9999 16.9436L34.3467 17.0718L47.3223 21.8689L47.9756 22.1104V22.8068V33.9999C47.9756 39.2494 44.4427 43.5018 41.1409 46.35C39.4679 47.7932 37.7998 48.9233 36.552 49.6922C35.927 50.0773 35.4048 50.3734 35.0365 50.5743C34.8523 50.6749 34.7065 50.7517 34.6053 50.804C34.5547 50.8302 34.5153 50.8503 34.4878 50.8642L34.4557 50.8803L34.4465 50.8849L34.4437 50.8863L34.4427 50.8867C34.4424 50.8869 34.4421 50.8871 33.9999 49.9901C33.5578 50.8871 33.5575 50.8869 33.5571 50.8867L33.5562 50.8863L33.5533 50.8849L33.5442 50.8803L33.512 50.8642C33.4846 50.8503 33.4451 50.8302 33.3946 50.804C33.2934 50.7517 33.1475 50.6749 32.9633 50.5743C32.5951 50.3734 32.0729 50.0773 31.4479 49.6922C30.2001 48.9233 28.5319 47.7932 26.8589 46.35C23.5571 43.5018 20.0243 39.2494 20.0243 33.9999V22.8068V22.1104L20.6775 21.8689L33.6532 17.0718L33.9999 16.9436ZM33.9999 49.9901L33.5578 50.8871L33.9999 51.105L34.4421 50.8871L33.9999 49.9901ZM33.9999 48.8614C34.0251 48.8478 34.0513 48.8336 34.0784 48.8188C34.4198 48.6325 34.9113 48.3539 35.5028 47.9895C36.6879 47.2592 38.2637 46.1907 39.8346 44.8356C43.0206 42.0873 45.9756 38.3446 45.9756 33.9999V23.5033L33.9999 19.0759L22.0243 23.5033V33.9999C22.0243 38.3446 24.9793 42.0873 28.1653 44.8356C29.7362 46.1907 31.3119 47.2592 32.4971 47.9895C33.0886 48.3539 33.5801 48.6325 33.9214 48.8188C33.9486 48.8336 33.9747 48.8478 33.9999 48.8614Z" fill="white"/>
<path fill-rule="evenodd" clip-rule="evenodd" d="M33.9999 16.9436L34.3467 17.0718L47.3223 21.8689L47.9756 22.1104V22.8068V33.9999C47.9756 39.2494 44.4427 43.5018 41.1409 46.35C39.4679 47.7932 37.7998 48.9233 36.552 49.6922C35.927 50.0773 35.4048 50.3734 35.0365 50.5743C34.8523 50.6749 34.7065 50.7517 34.6053 50.804C34.5547 50.8302 34.5153 50.8503 34.4878 50.8642L34.4557 50.8803L34.4465 50.8849L34.4437 50.8863L34.4427 50.8867C34.4424 50.8869 34.4421 50.8871 33.9999 49.9901C33.5578 50.8871 33.5575 50.8869 33.5571 50.8867L33.5562 50.8863L33.5533 50.8849L33.5442 50.8803L33.512 50.8642C33.4846 50.8503 33.4451 50.8302 33.3946 50.804C33.2934 50.7517 33.1475 50.6749 32.9633 50.5743C32.5951 50.3734 32.0729 50.0773 31.4479 49.6922C30.2001 48.9233 28.5319 47.7932 26.8589 46.35C23.5571 43.5018 20.0243 39.2494 20.0243 33.9999V22.8068V22.1104L20.6775 21.8689L33.6532 17.0718L33.9999 16.9436ZM33.9999 49.9901L33.5578 50.8871L33.9999 51.105L34.4421 50.8871L33.9999 49.9901ZM33.9999 48.8614C34.0251 48.8478 34.0513 48.8336 34.0784 48.8188C34.4198 48.6325 34.9113 48.3539 35.5028 47.9895C36.6879 47.2592 38.2637 46.1907 39.8346 44.8356C43.0206 42.0873 45.9756 38.3446 45.9756 33.9999V23.5033L33.9999 19.0759L22.0243 23.5033V33.9999C22.0243 38.3446 24.9793 42.0873 28.1653 44.8356C29.7362 46.1907 31.3119 47.2592 32.4971 47.9895C33.0886 48.3539 33.5801 48.6325 33.9214 48.8188C33.9486 48.8336 33.9747 48.8478 33.9999 48.8614Z" fill="url(#paint1_linear_363_1419)"/>
</g>
<defs>
<linearGradient id="paint0_linear_363_1419" x1="67.395" y1="33.7" x2="13.879" y2="33.7" gradientUnits="userSpaceOnUse">
<stop stop-color="#EFCC95"/>
<stop offset="1" stop-color="#99703B"/>
</linearGradient>
<linearGradient id="paint1_linear_363_1419" x1="47.9756" y1="33.9999" x2="25.7821" y2="33.9999" gradientUnits="userSpaceOnUse">
<stop stop-color="#EFCC95"/>
<stop offset="1" stop-color="#99703B"/>
</linearGradient>
<clipPath id="clip0_363_1419">
<rect width="68" height="68" fill="white"/>
</clipPath>
</defs>
</svg>
