<svg width="50" height="66" viewBox="0 0 50 66" fill="none" xmlns="http://www.w3.org/2000/svg">
<g clip-path="url(#clip0_363_1441)">
<g clip-path="url(#clip1_363_1441)">
<path fill-rule="evenodd" clip-rule="evenodd" d="M24.9848 65.2L12.2513 57.9845C5.8921 54.116 0.00671387 48.8326 0.00671387 36.4729V12.5923L24.9848 0L49.9673 12.5923V36.4729C49.9673 48.8326 44.0808 54.1171 37.7173 57.9845L37.6706 58.0139L24.9848 65.2ZM14.1345 54.8354L24.9848 60.9859L35.8374 54.8386C42.2943 50.9049 46.2965 46.455 46.2965 36.4729V14.8482L24.9848 4.1076L3.67313 14.8493V36.4729C3.67313 46.455 7.67532 50.9038 14.1345 54.8354ZM25 47.8698C24.6697 47.8698 24.3372 47.8557 24.0047 47.8318C17.5509 47.3548 12.3078 41.8986 12.0665 35.4112C11.9546 32.4294 12.8902 29.5693 14.8419 26.9113L23.0462 15.6904C23.2695 15.3857 23.5613 15.1377 23.898 14.9665C24.2348 14.7953 24.6071 14.7056 24.9848 14.7048C25.7498 14.7048 26.4736 15.0732 26.9234 15.6904C29.0924 18.6537 34.5486 26.1148 35.131 26.9113C36.9762 29.428 37.9151 32.1295 37.9151 34.9396C37.9151 38.5212 36.409 41.9758 33.7836 44.4153C31.402 46.6427 28.2609 47.8785 25 47.8709V47.8698ZM24.9848 17.4769C22.7137 20.5847 17.5227 27.6861 16.9544 28.4598C15.3591 30.631 14.5963 32.938 14.6854 35.3134C14.8767 40.4859 19.0549 44.8391 24.1992 45.2184C25.6174 45.3311 27.0436 45.147 28.3867 44.678C29.7299 44.2089 30.9606 43.4652 32.0004 42.4941C33.0376 41.5277 33.865 40.3585 34.4314 39.0589C34.9979 37.7593 35.2911 36.3572 35.293 34.9396C35.293 32.6967 34.5279 30.519 33.0186 28.4598C32.4502 27.6861 27.2592 20.5847 24.9848 17.4769Z" fill="url(#paint0_linear_363_1441)"/>
</g>
</g>
<defs>
<linearGradient id="paint0_linear_363_1441" x1="25.0283" y1="0" x2="25.0283" y2="65.2" gradientUnits="userSpaceOnUse">
<stop stop-color="#9D6833"/>
<stop offset="1" stop-color="#F7D29D"/>
</linearGradient>
<clipPath id="clip0_363_1441">
<rect width="50" height="65.2" fill="white"/>
</clipPath>
<clipPath id="clip1_363_1441">
<rect width="49.9867" height="65.2" fill="white" transform="translate(0.00671387)"/>
</clipPath>
</defs>
</svg>
