<svg width="33" height="31" viewBox="0 0 33 31" fill="none" xmlns="http://www.w3.org/2000/svg">
<path fill-rule="evenodd" clip-rule="evenodd" d="M14.8621 5.30459C13.6871 5.99378 11.429 6.71848 9.84381 6.91464L6.96216 7.27195L7.23546 11.6191C7.6585 18.3392 10.2957 23.3295 14.8108 25.9521C16.7928 27.1036 17.3576 27.2165 18.6679 26.7229C24.1365 24.6617 27.9397 17.913 27.9557 10.2413L27.9622 7.25393L25.1388 6.90456C23.5862 6.71212 21.2752 5.96886 20.0034 5.25317C18.7316 4.53694 17.5352 3.9734 17.3448 4.00097C17.1544 4.02854 16.0371 4.61488 14.8621 5.30459ZM15.8649 6.11783C15.0172 6.6713 12.9105 7.40131 11.183 7.74007L8.04144 8.3561L8.33613 11.8524C8.49818 13.7758 8.89823 16.2377 9.22555 17.324C10.0492 20.0564 12.8993 23.6004 15.3841 24.9819C17.4507 26.1307 17.4769 26.1318 19.4525 25.133C23.6081 23.0315 26.8925 16.7286 26.8925 10.8563V8.33012L23.8172 7.72894C22.1256 7.39813 19.9911 6.67342 19.0739 6.11942C17.4352 5.12911 17.3779 5.12911 15.8649 6.11783ZM18.9824 14.6955L16.2238 17.4295L14.6107 15.8979C13.724 15.0555 12.8795 14.4835 12.7351 14.6272C12.5901 14.7708 13.3785 15.7659 14.4872 16.8389L16.5024 18.7893L19.6114 15.6753C21.3212 13.9624 22.5 12.426 22.2304 12.2611C21.9609 12.0963 20.4992 13.1915 18.9824 14.6955Z" fill="#737270"/>
</svg>
