<svg width="56" height="54" viewBox="0 0 56 54" fill="none" xmlns="http://www.w3.org/2000/svg">
<path fill-rule="evenodd" clip-rule="evenodd" d="M24.293 9.21214C22.2787 10.3808 18.4078 11.6096 15.6902 11.9422L10.7502 12.5481L11.2188 19.9194C11.944 31.3143 16.465 39.776 24.205 44.2231C27.6028 46.1756 28.571 46.3671 30.8173 45.5302C40.192 42.0351 46.7117 30.5916 46.7392 17.5831L46.7502 12.5175L41.9102 11.9251C39.2486 11.5988 35.2869 10.3385 33.1066 9.12494C30.9264 7.91047 28.8754 6.9549 28.549 7.00164C28.2226 7.04839 26.3073 8.04262 24.293 9.21214ZM26.0121 10.5911C24.5589 11.5296 20.9474 12.7674 17.986 13.3419L12.6004 14.3864L13.1056 20.3149C13.3834 23.5763 14.0692 27.7509 14.6303 29.5929C16.0423 34.226 20.9282 40.2354 25.1878 42.578C28.7305 44.526 28.7755 44.5278 32.1623 42.8342C39.2862 39.2708 44.9165 28.5834 44.9165 18.6258V14.3424L39.6447 13.323C36.7447 12.762 33.0856 11.5332 31.5132 10.5938C28.7039 8.91459 28.6058 8.91459 26.0121 10.5911ZM31.3564 25.1359L26.6273 29.7718L23.8621 27.1747C22.3419 25.7463 20.8942 24.7764 20.6467 25.02C20.3982 25.2636 21.7497 26.9509 23.6503 28.7703L27.105 32.0775L32.4346 26.7972C35.3658 23.8927 37.3865 21.2876 36.9244 21.008C36.4623 20.7284 33.9566 22.5856 31.3564 25.1359Z" fill="white"/>
</svg>
