<svg width="32" height="32" viewBox="0 0 32 32" fill="none" xmlns="http://www.w3.org/2000/svg">
<path fill-rule="evenodd" clip-rule="evenodd" d="M14.9687 4.71963C14.5218 4.93725 11.9784 6.14581 9.3167 7.40531C6.65495 8.66475 4.44101 9.74282 4.39676 9.80094C4.33258 9.88538 4.31601 11.1354 4.31445 16.0091C4.31258 21.7329 4.31926 22.1194 4.42183 22.238C4.59833 22.4419 15.9241 27.7673 16.0918 27.7253C16.3711 27.6551 27.472 22.3671 27.5937 22.2462C27.7168 22.1239 27.719 22.0277 27.7353 16.0911C27.7495 10.91 27.739 10.0355 27.6608 9.88425C27.5601 9.6895 27.9524 9.88269 20.4179 6.31807C17.4571 4.91732 16.1196 4.31456 15.9805 4.31838C15.8708 4.32138 15.4156 4.50194 14.9687 4.71963ZM14.7705 5.8335C14.1115 6.14913 13.5593 6.42125 13.5436 6.43825C13.5278 6.45525 15.7963 7.54488 18.5846 8.85957L23.6544 11.25L24.8428 10.6837C25.4965 10.3723 26.0518 10.0972 26.0771 10.0725C26.1126 10.0376 16.3538 5.3795 16.0421 5.28256C16.0017 5.27 15.4295 5.51794 14.7705 5.8335ZM11.0078 7.61419C10.1651 8.01306 9.64957 8.28975 9.69926 8.31644C9.74432 8.34069 12.0225 9.4195 14.7618 10.7139L19.7425 13.0673L21.1056 12.3844L22.4687 11.7016L22.125 11.5453C21.9359 11.4594 21.4859 11.2491 21.125 11.078C18.5245 9.84525 13.4301 7.43669 12.9647 7.21988L12.3983 6.956L11.0078 7.61419ZM7.17195 9.42269C6.45876 9.75431 5.89626 10.0459 5.92195 10.0707C5.94764 10.0954 8.22664 11.1861 10.9864 12.4943L16.0041 14.8729L17.3462 14.2392C18.0843 13.8906 18.6811 13.5992 18.6723 13.5916C18.6224 13.5484 8.64014 8.85675 8.56245 8.83994C8.51089 8.82875 7.88514 9.091 7.17195 9.42269ZM5.25201 16.2281L5.25408 21.6567L10.3534 24.0629C13.158 25.3864 15.4774 26.4786 15.5076 26.49C15.5388 26.5019 15.5625 24.1803 15.5625 21.1007V15.6905L15.2968 15.5546C15.056 15.4313 5.51208 10.9107 5.32808 10.8327C5.26589 10.8063 5.25039 11.9086 5.25201 16.2281ZM25.375 11.4705L24.0312 12.1161L24 14.1143C23.9609 16.6111 24.0618 16.4085 22.8858 16.3504L22.0528 16.3093L21.0238 17.2174C20.142 17.9954 19.9651 18.1254 19.7883 18.1254C19.6579 18.1254 19.538 18.077 19.4628 17.994C19.3533 17.8731 19.3412 17.7204 19.3125 16.0996L19.2812 14.3366L17.8906 14.9952L16.5 15.6539V21.0763V26.4988L16.7656 26.3729C16.9116 26.3037 19.225 25.2113 21.9062 23.9452L26.7812 21.6434L26.7972 16.2281C26.806 13.2498 26.7919 10.8156 26.766 10.8189C26.74 10.8221 26.114 11.1154 25.375 11.4705ZM21.5937 13.2482L20.2812 13.8674L20.2643 15.2593L20.2475 16.6512L20.4206 16.4923C21.7202 15.2995 21.6433 15.338 22.5468 15.4286L23 15.474V14.0498C23 13.2664 22.9789 12.6263 22.9531 12.6273C22.9273 12.6282 22.3156 12.9076 21.5937 13.2482ZM9.21795 19.0013C9.06908 19.1658 9.07207 19.4774 9.22389 19.6194C9.37645 19.7621 13.3087 21.6254 13.4572 21.6254C13.5182 21.6254 13.6371 21.5564 13.7215 21.472C13.9168 21.2767 13.9223 21.0031 13.7343 20.8309C13.5 20.6164 9.75976 18.8754 9.53314 18.8754C9.41076 18.8754 9.2872 18.9248 9.21795 19.0013ZM9.21795 21.1888C9.06939 21.3529 9.07239 21.6641 9.22389 21.8108C9.38932 21.9709 13.2894 23.8129 13.4629 23.8129C13.6479 23.8129 13.875 23.5649 13.875 23.3627C13.875 23.2742 13.8258 23.1454 13.7656 23.0766C13.6215 22.9117 9.6972 21.0629 9.49126 21.0629C9.40357 21.0629 9.28058 21.1196 9.21795 21.1888Z" fill="#1D1D1D" fill-opacity="0.6"/>
</svg>
