<svg width="106" height="20" viewBox="0 0 106 20" fill="none" xmlns="http://www.w3.org/2000/svg">
<g clip-path="url(#clip0_399_26)">
<path d="M0 0.00537109H19.875V19.9947H0V0.00537109ZM21.5312 0.00537109H41.4062V19.9947H21.5312V0.00537109ZM43.0625 0.00537109H62.9375V19.9947H43.0625V0.00537109ZM64.5938 0.00537109H84.4688V19.9947H64.5938V0.00537109ZM86.125 0.00537109H106V19.9947H86.125V0.00537109Z" fill="#00B67A"/>
<path d="M9.93745 13.4774L12.9601 12.707L14.223 16.6216L9.93745 13.4774ZM16.8937 8.41764H11.573L9.93745 3.37866L8.3019 8.41764H2.9812L7.28745 11.541L5.6519 16.58L9.95815 13.4566L12.6082 11.541L16.8937 8.41764ZM31.4687 13.4774L34.4914 12.707L35.7542 16.6216L31.4687 13.4774ZM38.425 8.41764H33.1042L31.4687 3.37866L29.8332 8.41764H24.5125L28.8187 11.541L27.1832 16.58L31.4894 13.4566L34.1394 11.541L38.425 8.41764ZM53 13.4774L56.0226 12.707L57.2855 16.6216L53 13.4774ZM59.9562 8.41764H54.6355L53 3.37866L51.3644 8.41764H46.0437L50.35 11.541L48.7144 16.58L53.0207 13.4566L55.6707 11.541L59.9562 8.41764ZM74.5312 13.4774L77.5539 12.707L78.8167 16.6216L74.5312 13.4774ZM81.4875 8.41764H76.1667L74.5312 3.37866L72.8957 8.41764H67.575L71.8812 11.541L70.2457 16.58L74.5519 13.4566L77.2019 11.541L81.4875 8.41764ZM96.0625 13.4774L99.0851 12.707L100.348 16.6216L96.0625 13.4774ZM103.019 8.41764H97.698L96.0625 3.37866L94.4269 8.41764H89.1062L93.4125 11.541L91.7769 16.58L96.0832 13.4566L98.7332 11.541L103.019 8.41764Z" fill="white"/>
</g>
<defs>
<clipPath id="clip0_399_26">
<rect width="106" height="20" fill="white"/>
</clipPath>
</defs>
</svg>
