<svg width="116" height="29" viewBox="0 0 116 29" fill="none" xmlns="http://www.w3.org/2000/svg">
<path fill-rule="evenodd" clip-rule="evenodd" d="M116 0H6L0 8V21L6 29H116V0ZM8.5 17C9.88071 17 11 15.8807 11 14.5C11 13.1193 9.88071 12 8.5 12C7.11929 12 6 13.1193 6 14.5C6 15.8807 7.11929 17 8.5 17Z" fill="#D9D9D9"/>
<path fill-rule="evenodd" clip-rule="evenodd" d="M116 0H6L0 8V21L6 29H116V0ZM8.5 17C9.88071 17 11 15.8807 11 14.5C11 13.1193 9.88071 12 8.5 12C7.11929 12 6 13.1193 6 14.5C6 15.8807 7.11929 17 8.5 17Z" fill="url(#paint0_linear_361_40)"/>
<defs>
<linearGradient id="paint0_linear_361_40" x1="61" y1="29" x2="61" y2="3.45707e-06" gradientUnits="userSpaceOnUse">
<stop stop-color="#1A1A1A"/>
<stop offset="1" stop-color="#3C3C3C"/>
</linearGradient>
</defs>
</svg>
