<svg width="55" height="55" viewBox="0 0 55 55" fill="none" xmlns="http://www.w3.org/2000/svg">
<path fill-rule="evenodd" clip-rule="evenodd" d="M25.7274 8.1118C24.9594 8.48584 20.5878 10.5631 16.0131 12.7278C11.4382 14.8925 7.63298 16.7454 7.55693 16.8453C7.44661 16.9904 7.41814 19.1389 7.41545 27.5156C7.41223 37.3533 7.42373 38.0177 7.6 38.2215C7.90336 38.572 27.3695 47.725 27.6578 47.6527C28.1379 47.5322 47.2175 38.4434 47.4267 38.2356C47.6382 38.0255 47.6419 37.86 47.67 27.6566C47.6944 18.7515 47.6763 17.2485 47.5419 16.9885C47.3689 16.6538 48.0433 16.9858 35.0933 10.8591C30.0044 8.45157 27.7055 7.4156 27.4664 7.42215C27.278 7.42731 26.4955 7.73765 25.7274 8.1118ZM25.3867 10.0263C24.254 10.5688 23.3051 11.0365 23.278 11.0657C23.2508 11.0949 27.1498 12.9677 31.9423 15.2273L40.656 19.3359L42.6986 18.3625C43.822 17.8272 44.7766 17.3545 44.82 17.3121C44.881 17.2521 28.108 9.24596 27.5723 9.07935C27.5029 9.05776 26.5195 9.4839 25.3867 10.0263ZM18.9196 13.0868C17.4713 13.7724 16.5852 14.248 16.6706 14.2938C16.748 14.3355 20.6637 16.1897 25.3719 18.4144L33.9323 22.4593L36.2752 21.2856L38.6181 20.112L38.0272 19.8435C37.7023 19.6957 36.9289 19.3344 36.3085 19.0403C31.8389 16.9215 23.083 12.7818 22.2831 12.4091L21.3095 11.9556L18.9196 13.0868ZM12.3268 16.1952C11.101 16.7652 10.1342 17.2664 10.1783 17.3089C10.2225 17.3515 14.1395 19.226 18.8828 21.4745L27.507 25.5628L29.8138 24.4735C31.0824 23.8745 32.1081 23.3735 32.0929 23.3604C32.0072 23.2862 14.8502 15.2225 14.7167 15.1936C14.6281 15.1744 13.5526 15.6251 12.3268 16.1952ZM9.02689 27.892L9.03043 37.2224L17.7949 41.3581C22.6153 43.6328 26.6018 45.51 26.6536 45.5296C26.7073 45.55 26.748 41.5599 26.748 36.2668V26.968L26.2914 26.7343C25.8775 26.5225 9.47387 18.7527 9.15762 18.6186C9.05074 18.5733 9.0241 20.4679 9.02689 27.892ZM43.6132 19.7149L41.3036 20.8245L41.2499 24.2589C41.1828 28.5502 41.3563 28.2021 39.3349 28.1023L37.9033 28.0316L36.1346 29.5923C34.6191 30.9296 34.3151 31.153 34.0111 31.153C33.787 31.153 33.5808 31.0698 33.4516 30.9271C33.2635 30.7194 33.2427 30.4568 33.1933 27.6711L33.1396 24.6409L30.7494 25.7729L28.3593 26.905V36.2249V45.5448L28.8158 45.3284C29.0669 45.2094 33.0429 43.3318 37.6513 41.1557L46.0302 37.1995L46.0577 27.892C46.0727 22.7731 46.0485 18.5893 46.004 18.5949C45.9593 18.6005 44.8834 19.1045 43.6132 19.7149ZM37.1142 22.7703L34.8583 23.8346L34.8293 26.2269L34.8004 28.6192L35.0979 28.3461C37.3316 26.296 37.1993 26.3621 38.7523 26.5179L39.5312 26.5959V24.148C39.5312 22.8015 39.495 21.7013 39.4506 21.703C39.4062 21.7046 38.3549 22.1849 37.1142 22.7703ZM15.8433 32.6583C15.5875 32.9411 15.5926 33.4768 15.8535 33.7209C16.1158 33.966 22.8743 37.1687 23.1296 37.1687C23.2344 37.1687 23.4388 37.05 23.5838 36.9049C23.9195 36.5693 23.929 36.0991 23.6059 35.8031C23.2031 35.4343 16.7746 32.4421 16.3851 32.4421C16.1747 32.4421 15.9624 32.5269 15.8433 32.6583ZM15.8433 36.4181C15.588 36.7003 15.5932 37.2352 15.8535 37.4873C16.1379 37.7624 22.8411 40.9284 23.1393 40.9284C23.4573 40.9284 23.8476 40.5021 23.8476 40.1546C23.8476 40.0025 23.763 39.7812 23.6596 39.6629C23.4119 39.3794 16.6671 36.2019 16.3131 36.2019C16.1624 36.2019 15.951 36.2992 15.8433 36.4181Z" fill="white"/>
</svg>
