<svg width="24" height="24" viewBox="0 0 24 24" fill="none" xmlns="http://www.w3.org/2000/svg">
<path fill-rule="evenodd" clip-rule="evenodd" d="M17.0001 8C17.0001 9.32608 16.4733 10.5979 15.5356 11.5355C14.598 12.4732 13.3262 13 12.0001 13C10.674 13 9.40226 12.4732 8.46458 11.5355C7.5269 10.5979 7.00011 9.32608 7.00011 8C7.00011 6.67392 7.5269 5.40215 8.46458 4.46447C9.40226 3.52678 10.674 3 12.0001 3C13.3262 3 14.598 3.52678 15.5356 4.46447C16.4733 5.40215 17.0001 6.67392 17.0001 8ZM15.5001 8C15.5001 8.45963 15.4096 8.91475 15.2337 9.33939C15.0578 9.76403 14.8 10.1499 14.475 10.4749C14.15 10.7999 13.7641 11.0577 13.3395 11.2336C12.9149 11.4095 12.4597 11.5 12.0001 11.5C11.5405 11.5 11.0854 11.4095 10.6607 11.2336C10.2361 11.0577 9.85024 10.7999 9.52524 10.4749C9.20023 10.1499 8.94242 9.76403 8.76653 9.33939C8.59064 8.91475 8.50011 8.45963 8.50011 8C8.50011 7.07174 8.86886 6.1815 9.52524 5.52513C10.1816 4.86875 11.0719 4.5 12.0001 4.5C12.9284 4.5 13.8186 4.86875 14.475 5.52513C15.1314 6.1815 15.5001 7.07174 15.5001 8ZM12.0001 14C7.48511 14 3.73811 17.247 3.01811 21.506C2.88011 22.323 3.57211 23 4.41011 23H19.5881C20.4271 23 21.1201 22.323 20.9811 21.506C20.2621 17.246 16.5151 14 12.0001 14ZM4.86911 21.5C4.83216 21.5006 4.79557 21.4927 4.76214 21.4769C4.72871 21.4612 4.69934 21.438 4.67626 21.4091C4.65319 21.3803 4.63703 21.3465 4.62903 21.3104C4.62103 21.2743 4.6214 21.2369 4.63011 21.201C5.44511 17.928 8.43711 15.5 12.0001 15.5C15.5631 15.5 18.5551 17.928 19.3701 21.201C19.3788 21.2369 19.3792 21.2743 19.3712 21.3104C19.3632 21.3465 19.347 21.3803 19.324 21.4091C19.3009 21.438 19.2715 21.4612 19.2381 21.4769C19.2047 21.4927 19.1681 21.5006 19.1311 21.5H4.86911Z" fill="#B2B2B2"/>
</svg>
