<svg width="166" height="19" viewBox="0 0 166 19" fill="none" xmlns="http://www.w3.org/2000/svg">
    <path fill-rule="evenodd" clip-rule="evenodd"
        d="M12.315 3.17765C10.9526 2.5706 9.43047 2.42021 7.97562 2.74892C6.52076 3.07762 5.21114 3.86781 4.24206 5.00163C3.27299 6.13544 2.69638 7.55214 2.59825 9.04043C2.50011 10.5287 2.8857 12.0089 3.6975 13.2601C4.50931 14.5114 5.70383 15.4667 7.10293 15.9836C8.50202 16.5005 10.0307 16.5512 11.461 16.1283C12.8914 15.7055 14.1467 14.8315 15.0397 13.6369C15.9328 12.4423 16.4157 10.991 16.4166 9.49949V8.77172C16.4166 8.21944 16.8643 7.77172 17.4166 7.77172C17.9689 7.77172 18.4166 8.21944 18.4166 8.77172V9.50006V9.50063C18.4155 11.4234 17.7929 13.2944 16.6416 14.8344C15.4903 16.3745 13.872 17.5011 12.0281 18.0463C10.1842 18.5915 8.21348 18.526 6.40982 17.8596C4.60617 17.1933 3.06624 15.9617 2.01969 14.3487C0.973148 12.7356 0.476066 10.8275 0.60258 8.90884C0.729095 6.9902 1.47243 5.16385 2.72172 3.70218C3.97101 2.24052 5.65932 1.22184 7.53485 0.798091C9.41039 0.374339 11.3727 0.568212 13.129 1.35079C13.6335 1.57557 13.8602 2.16675 13.6354 2.67122C13.4107 3.1757 12.8195 3.40243 12.315 3.17765ZM18.8308 3.16602L18.1241 3.87348L10.2074 11.7981L9.50028 12.5059L8.79282 11.7984L6.41782 9.42341L5.71071 8.71631L7.12492 7.30209L7.83203 8.0092L9.49957 9.67674L16.7091 2.45997L17.4159 1.75251L18.8308 3.16602ZM27.8994 3.81566L31.7554 15.2557H34.2194L38.0914 3.81566H36.0914L33.0994 13.0957L30.1234 3.81566H27.8994ZM37.9984 11.1597C37.9984 13.7997 39.7744 15.4157 42.2384 15.4157C44.3824 15.4157 45.8064 14.4557 46.0784 12.6957H44.2064C44.0624 13.5117 43.4544 13.9757 42.2864 13.9757C40.8464 13.9757 40.0464 13.0797 39.9824 11.4957H46.1104V10.9357C46.1104 7.94366 44.2384 6.71166 42.1584 6.71166C39.7744 6.71166 37.9984 8.43966 37.9984 11.0317V11.1597ZM44.1904 10.1997H40.0144C40.2064 8.90366 40.9904 8.11966 42.1584 8.11966C43.3584 8.11966 44.0944 8.75966 44.1904 10.1997ZM47.8396 6.88766V15.2557H49.7756V10.9037C49.7756 9.12766 50.7996 8.58366 52.4956 8.56766V6.75966C51.0876 6.77566 50.3036 7.39966 49.7756 8.45566V6.88766H47.8396ZM54.247 6.88766V15.2557H56.183V6.88766H54.247ZM54.039 4.40766C54.039 5.03166 54.551 5.51166 55.191 5.51166C55.831 5.51166 56.343 5.03166 56.343 4.40766C56.343 3.76766 55.831 3.28766 55.191 3.28766C54.551 3.28766 54.039 3.76766 54.039 4.40766ZM58.8788 8.34366V15.2557H60.8148V8.34366H62.7188V6.88766H60.8148V5.68766C60.8148 4.96766 61.1348 4.45566 61.9028 4.45566C62.2548 4.45566 62.4948 4.48766 62.7188 4.58366V3.07966C62.4148 2.98366 62.1428 2.93566 61.6628 2.93566C59.8868 2.93566 58.8788 3.92766 58.8788 5.76766V6.88766H57.7428V8.34366H58.8788ZM64.1689 6.88766V15.2557H66.1049V6.88766H64.1689ZM63.9609 4.40766C63.9609 5.03166 64.4729 5.51166 65.1129 5.51166C65.7529 5.51166 66.2649 5.03166 66.2649 4.40766C66.2649 3.76766 65.7529 3.28766 65.1129 3.28766C64.4729 3.28766 63.9609 3.76766 63.9609 4.40766ZM67.9046 11.1597C67.9046 13.7997 69.6806 15.4157 72.1446 15.4157C74.2887 15.4157 75.7126 14.4557 75.9846 12.6957H74.1126C73.9686 13.5117 73.3606 13.9757 72.1926 13.9757C70.7526 13.9757 69.9526 13.0797 69.8886 11.4957H76.0166V10.9357C76.0166 7.94366 74.1446 6.71166 72.0646 6.71166C69.6806 6.71166 67.9046 8.43966 67.9046 11.0317V11.1597ZM74.0966 10.1997H69.9206C70.1126 8.90366 70.8966 8.11966 72.0646 8.11966C73.2646 8.11966 74.0006 8.75966 74.0966 10.1997ZM77.2019 11.2077C77.2019 13.9277 78.7859 15.4157 80.8819 15.4157C82.1139 15.4157 83.1859 14.6797 83.6339 13.8477V15.2557H85.5699V3.01566H83.6339V8.16766C83.1699 7.33566 82.3219 6.71166 80.9619 6.71166C78.7859 6.71166 77.2019 8.40766 77.2019 11.0797V11.2077ZM83.6979 11.1117C83.6979 12.9837 82.7059 13.8797 81.3619 13.8797C80.1139 13.8797 79.1859 12.9997 79.1859 11.1597V11.0317C79.1859 9.22366 80.0179 8.23166 81.4419 8.23166C82.8499 8.23166 83.6979 9.14366 83.6979 10.9837V11.1117ZM91.2674 9.60766C91.2674 13.1277 93.2674 15.4157 96.8514 15.4157C99.5714 15.4157 101.523 14.0237 101.859 11.2717H99.7794C99.5554 12.8877 98.4354 13.6877 96.8514 13.6877C94.7394 13.6877 93.5074 12.1677 93.5074 9.59166V9.46366C93.5074 6.90366 94.8194 5.33566 96.8354 5.33566C98.4834 5.33566 99.3314 6.11966 99.5714 7.63966H101.731C101.475 4.95166 99.4434 3.63966 96.8194 3.63966C93.6354 3.63966 91.2674 6.03966 91.2674 9.47966V9.60766ZM103.463 12.2477C103.463 14.4717 104.695 15.4157 106.343 15.4157C107.703 15.4157 108.583 14.7597 108.999 13.9437V15.2557H110.935V6.88766H108.999V11.8637C108.999 13.1917 108.087 13.8637 107.047 13.8637C105.927 13.8637 105.399 13.2877 105.399 12.0237V6.88766H103.463V12.2477ZM112.59 12.6477C112.67 14.4237 113.934 15.4157 116.094 15.4157C118.238 15.4157 119.438 14.4397 119.438 12.7437C119.438 10.9677 118.27 10.4877 116.302 10.1837C114.974 9.95966 114.574 9.71966 114.574 9.11166C114.574 8.51966 115.07 8.11966 115.902 8.11966C116.798 8.11966 117.23 8.47166 117.39 9.23966H119.182C118.974 7.35166 117.614 6.71166 115.902 6.71166C114.334 6.71166 112.766 7.54366 112.766 9.22366C112.766 10.7917 113.582 11.4157 115.79 11.7677C117.022 11.9757 117.582 12.2317 117.582 12.9197C117.582 13.6237 117.118 13.9917 116.078 13.9917C114.942 13.9917 114.51 13.4957 114.414 12.6477H112.59ZM121.457 12.9197C121.457 14.5037 122.321 15.3997 123.985 15.3997C124.577 15.3997 124.993 15.3037 125.297 15.1917V13.6557C125.025 13.7677 124.737 13.8157 124.353 13.8157C123.745 13.8157 123.393 13.4797 123.393 12.7437V8.34366H125.233V6.88766H123.393V5.04766H121.457V6.88766H120.337V8.34366H121.457V12.9197ZM133.091 11.1277C133.091 12.8397 132.227 13.9117 130.787 13.9117C129.315 13.9117 128.467 12.8397 128.467 11.1277V10.9997C128.467 9.27166 129.347 8.23166 130.787 8.23166C132.227 8.23166 133.091 9.28766 133.091 11.0157V11.1277ZM126.483 11.1597C126.483 13.7037 128.307 15.4157 130.771 15.4157C133.235 15.4157 135.075 13.7197 135.075 11.1117V10.9837C135.075 8.42366 133.235 6.71166 130.787 6.71166C128.323 6.71166 126.483 8.43966 126.483 11.0317V11.1597ZM136.824 6.88766V15.2557H138.76V10.2477C138.76 8.96766 139.64 8.32766 140.6 8.32766C141.544 8.32766 142.088 8.85566 142.088 10.0877V15.2557H144.024V10.2477C144.024 8.96766 144.904 8.32766 145.864 8.32766C146.824 8.32766 147.352 8.85566 147.352 10.0877V15.2557H149.288V9.95966C149.288 7.65566 148.04 6.71166 146.504 6.71166C145.464 6.71166 144.312 7.17566 143.672 8.21566C143.256 7.17566 142.392 6.71166 141.304 6.71166C140.072 6.71166 139.16 7.38366 138.76 8.16766V6.88766H136.824ZM150.952 11.1597C150.952 13.7997 152.728 15.4157 155.192 15.4157C157.336 15.4157 158.76 14.4557 159.032 12.6957H157.16C157.016 13.5117 156.408 13.9757 155.24 13.9757C153.8 13.9757 153 13.0797 152.936 11.4957H159.064V10.9357C159.064 7.94366 157.192 6.71166 155.112 6.71166C152.728 6.71166 150.952 8.43966 150.952 11.0317V11.1597ZM157.144 10.1997H152.968C153.16 8.90366 153.944 8.11966 155.112 8.11966C156.312 8.11966 157.048 8.75966 157.144 10.1997ZM160.793 6.88766V15.2557H162.729V10.9037C162.729 9.12766 163.753 8.58366 165.449 8.56766V6.75966C164.041 6.77566 163.257 7.39966 162.729 8.45566V6.88766H160.793Z"
        fill="#D3AE78" />
    <path fill-rule="evenodd" clip-rule="evenodd"
        d="M12.315 3.17765C10.9526 2.5706 9.43047 2.42021 7.97562 2.74892C6.52076 3.07762 5.21114 3.86781 4.24206 5.00163C3.27299 6.13544 2.69638 7.55214 2.59825 9.04043C2.50011 10.5287 2.8857 12.0089 3.6975 13.2601C4.50931 14.5114 5.70383 15.4667 7.10293 15.9836C8.50202 16.5005 10.0307 16.5512 11.461 16.1283C12.8914 15.7055 14.1467 14.8315 15.0397 13.6369C15.9328 12.4423 16.4157 10.991 16.4166 9.49949V8.77172C16.4166 8.21944 16.8643 7.77172 17.4166 7.77172C17.9689 7.77172 18.4166 8.21944 18.4166 8.77172V9.50006V9.50063C18.4155 11.4234 17.7929 13.2944 16.6416 14.8344C15.4903 16.3745 13.872 17.5011 12.0281 18.0463C10.1842 18.5915 8.21348 18.526 6.40982 17.8596C4.60617 17.1933 3.06624 15.9617 2.01969 14.3487C0.973148 12.7356 0.476066 10.8275 0.60258 8.90884C0.729095 6.9902 1.47243 5.16385 2.72172 3.70218C3.97101 2.24052 5.65932 1.22184 7.53485 0.798091C9.41039 0.374339 11.3727 0.568212 13.129 1.35079C13.6335 1.57557 13.8602 2.16675 13.6354 2.67122C13.4107 3.1757 12.8195 3.40243 12.315 3.17765ZM18.8308 3.16602L18.1241 3.87348L10.2074 11.7981L9.50028 12.5059L8.79282 11.7984L6.41782 9.42341L5.71071 8.71631L7.12492 7.30209L7.83203 8.0092L9.49957 9.67674L16.7091 2.45997L17.4159 1.75251L18.8308 3.16602ZM27.8994 3.81566L31.7554 15.2557H34.2194L38.0914 3.81566H36.0914L33.0994 13.0957L30.1234 3.81566H27.8994ZM37.9984 11.1597C37.9984 13.7997 39.7744 15.4157 42.2384 15.4157C44.3824 15.4157 45.8064 14.4557 46.0784 12.6957H44.2064C44.0624 13.5117 43.4544 13.9757 42.2864 13.9757C40.8464 13.9757 40.0464 13.0797 39.9824 11.4957H46.1104V10.9357C46.1104 7.94366 44.2384 6.71166 42.1584 6.71166C39.7744 6.71166 37.9984 8.43966 37.9984 11.0317V11.1597ZM44.1904 10.1997H40.0144C40.2064 8.90366 40.9904 8.11966 42.1584 8.11966C43.3584 8.11966 44.0944 8.75966 44.1904 10.1997ZM47.8396 6.88766V15.2557H49.7756V10.9037C49.7756 9.12766 50.7996 8.58366 52.4956 8.56766V6.75966C51.0876 6.77566 50.3036 7.39966 49.7756 8.45566V6.88766H47.8396ZM54.247 6.88766V15.2557H56.183V6.88766H54.247ZM54.039 4.40766C54.039 5.03166 54.551 5.51166 55.191 5.51166C55.831 5.51166 56.343 5.03166 56.343 4.40766C56.343 3.76766 55.831 3.28766 55.191 3.28766C54.551 3.28766 54.039 3.76766 54.039 4.40766ZM58.8788 8.34366V15.2557H60.8148V8.34366H62.7188V6.88766H60.8148V5.68766C60.8148 4.96766 61.1348 4.45566 61.9028 4.45566C62.2548 4.45566 62.4948 4.48766 62.7188 4.58366V3.07966C62.4148 2.98366 62.1428 2.93566 61.6628 2.93566C59.8868 2.93566 58.8788 3.92766 58.8788 5.76766V6.88766H57.7428V8.34366H58.8788ZM64.1689 6.88766V15.2557H66.1049V6.88766H64.1689ZM63.9609 4.40766C63.9609 5.03166 64.4729 5.51166 65.1129 5.51166C65.7529 5.51166 66.2649 5.03166 66.2649 4.40766C66.2649 3.76766 65.7529 3.28766 65.1129 3.28766C64.4729 3.28766 63.9609 3.76766 63.9609 4.40766ZM67.9046 11.1597C67.9046 13.7997 69.6806 15.4157 72.1446 15.4157C74.2887 15.4157 75.7126 14.4557 75.9846 12.6957H74.1126C73.9686 13.5117 73.3606 13.9757 72.1926 13.9757C70.7526 13.9757 69.9526 13.0797 69.8886 11.4957H76.0166V10.9357C76.0166 7.94366 74.1446 6.71166 72.0646 6.71166C69.6806 6.71166 67.9046 8.43966 67.9046 11.0317V11.1597ZM74.0966 10.1997H69.9206C70.1126 8.90366 70.8966 8.11966 72.0646 8.11966C73.2646 8.11966 74.0006 8.75966 74.0966 10.1997ZM77.2019 11.2077C77.2019 13.9277 78.7859 15.4157 80.8819 15.4157C82.1139 15.4157 83.1859 14.6797 83.6339 13.8477V15.2557H85.5699V3.01566H83.6339V8.16766C83.1699 7.33566 82.3219 6.71166 80.9619 6.71166C78.7859 6.71166 77.2019 8.40766 77.2019 11.0797V11.2077ZM83.6979 11.1117C83.6979 12.9837 82.7059 13.8797 81.3619 13.8797C80.1139 13.8797 79.1859 12.9997 79.1859 11.1597V11.0317C79.1859 9.22366 80.0179 8.23166 81.4419 8.23166C82.8499 8.23166 83.6979 9.14366 83.6979 10.9837V11.1117ZM91.2674 9.60766C91.2674 13.1277 93.2674 15.4157 96.8514 15.4157C99.5714 15.4157 101.523 14.0237 101.859 11.2717H99.7794C99.5554 12.8877 98.4354 13.6877 96.8514 13.6877C94.7394 13.6877 93.5074 12.1677 93.5074 9.59166V9.46366C93.5074 6.90366 94.8194 5.33566 96.8354 5.33566C98.4834 5.33566 99.3314 6.11966 99.5714 7.63966H101.731C101.475 4.95166 99.4434 3.63966 96.8194 3.63966C93.6354 3.63966 91.2674 6.03966 91.2674 9.47966V9.60766ZM103.463 12.2477C103.463 14.4717 104.695 15.4157 106.343 15.4157C107.703 15.4157 108.583 14.7597 108.999 13.9437V15.2557H110.935V6.88766H108.999V11.8637C108.999 13.1917 108.087 13.8637 107.047 13.8637C105.927 13.8637 105.399 13.2877 105.399 12.0237V6.88766H103.463V12.2477ZM112.59 12.6477C112.67 14.4237 113.934 15.4157 116.094 15.4157C118.238 15.4157 119.438 14.4397 119.438 12.7437C119.438 10.9677 118.27 10.4877 116.302 10.1837C114.974 9.95966 114.574 9.71966 114.574 9.11166C114.574 8.51966 115.07 8.11966 115.902 8.11966C116.798 8.11966 117.23 8.47166 117.39 9.23966H119.182C118.974 7.35166 117.614 6.71166 115.902 6.71166C114.334 6.71166 112.766 7.54366 112.766 9.22366C112.766 10.7917 113.582 11.4157 115.79 11.7677C117.022 11.9757 117.582 12.2317 117.582 12.9197C117.582 13.6237 117.118 13.9917 116.078 13.9917C114.942 13.9917 114.51 13.4957 114.414 12.6477H112.59ZM121.457 12.9197C121.457 14.5037 122.321 15.3997 123.985 15.3997C124.577 15.3997 124.993 15.3037 125.297 15.1917V13.6557C125.025 13.7677 124.737 13.8157 124.353 13.8157C123.745 13.8157 123.393 13.4797 123.393 12.7437V8.34366H125.233V6.88766H123.393V5.04766H121.457V6.88766H120.337V8.34366H121.457V12.9197ZM133.091 11.1277C133.091 12.8397 132.227 13.9117 130.787 13.9117C129.315 13.9117 128.467 12.8397 128.467 11.1277V10.9997C128.467 9.27166 129.347 8.23166 130.787 8.23166C132.227 8.23166 133.091 9.28766 133.091 11.0157V11.1277ZM126.483 11.1597C126.483 13.7037 128.307 15.4157 130.771 15.4157C133.235 15.4157 135.075 13.7197 135.075 11.1117V10.9837C135.075 8.42366 133.235 6.71166 130.787 6.71166C128.323 6.71166 126.483 8.43966 126.483 11.0317V11.1597ZM136.824 6.88766V15.2557H138.76V10.2477C138.76 8.96766 139.64 8.32766 140.6 8.32766C141.544 8.32766 142.088 8.85566 142.088 10.0877V15.2557H144.024V10.2477C144.024 8.96766 144.904 8.32766 145.864 8.32766C146.824 8.32766 147.352 8.85566 147.352 10.0877V15.2557H149.288V9.95966C149.288 7.65566 148.04 6.71166 146.504 6.71166C145.464 6.71166 144.312 7.17566 143.672 8.21566C143.256 7.17566 142.392 6.71166 141.304 6.71166C140.072 6.71166 139.16 7.38366 138.76 8.16766V6.88766H136.824ZM150.952 11.1597C150.952 13.7997 152.728 15.4157 155.192 15.4157C157.336 15.4157 158.76 14.4557 159.032 12.6957H157.16C157.016 13.5117 156.408 13.9757 155.24 13.9757C153.8 13.9757 153 13.0797 152.936 11.4957H159.064V10.9357C159.064 7.94366 157.192 6.71166 155.112 6.71166C152.728 6.71166 150.952 8.43966 150.952 11.0317V11.1597ZM157.144 10.1997H152.968C153.16 8.90366 153.944 8.11966 155.112 8.11966C156.312 8.11966 157.048 8.75966 157.144 10.1997ZM160.793 6.88766V15.2557H162.729V10.9037C162.729 9.12766 163.753 8.58366 165.449 8.56766V6.75966C164.041 6.77566 163.257 7.39966 162.729 8.45566V6.88766H160.793Z"
        fill="url(#paint0_linear_363_979)" />
    <defs>
        <linearGradient id="paint0_linear_363_979" x1="165.449" y1="10.25" x2="17.2088" y2="10.25"
            gradientUnits="userSpaceOnUse">
            <stop stop-color="#EFCC95" />
            <stop offset="1" stop-color="#99703B" />
        </linearGradient>
    </defs>
</svg>