<svg width="78" height="71" viewBox="0 0 78 71" fill="none" xmlns="http://www.w3.org/2000/svg">
<circle cx="39.5" cy="35.5" r="21.5" fill="#B98141"/>
<path d="M33.4428 36V35.52L38.8428 29.82C40.2028 28.38 41.0228 27.12 41.0228 25.76C41.0228 24.42 40.2628 23.58 38.8828 23.58C37.4628 23.58 36.5628 24.4 36.3228 26.42H33.8828C34.0628 23.3 35.9428 21.5 38.9628 21.5C41.9228 21.5 43.6828 23.2 43.6828 25.72C43.6828 27.58 42.5828 29.2 40.8828 30.84L37.7028 33.94H43.7828V36H33.4428Z" fill="white"/>
<path d="M25.5586 47V43.9L23.1886 39.85H24.6586L26.2686 42.81L27.8386 39.85H29.1386L26.8986 43.91V47H25.5586ZM30.1276 47V39.85H34.5976V40.9H31.4576V42.86H33.9776V43.86H31.4576V45.95H34.7676V47H30.1276ZM35.4175 47L37.8075 39.85H39.5475L41.9075 47H40.5275L39.9575 45.23H37.2275L36.6675 47H35.4175ZM38.5975 40.94L37.5375 44.26H39.6475L38.5975 40.94ZM42.9987 47V39.85H45.3987C46.9687 39.85 48.0687 40.49 48.0687 41.95V41.99C48.0687 43.11 47.3687 43.68 46.4787 43.91L48.4887 47H47.0487L45.1787 44.11H44.3287V47H42.9987ZM44.3287 43.16H45.3987C46.2887 43.16 46.7587 42.78 46.7587 42.02V41.98C46.7587 41.16 46.2487 40.88 45.3987 40.88H44.3287V43.16ZM51.8838 47.1C49.9338 47.1 49.1138 46.13 49.0138 44.78H50.2938C50.3838 45.5 50.6738 46.1 51.8838 46.1C52.6738 46.1 53.2338 45.66 53.2338 45C53.2338 44.34 52.9038 44.09 51.7438 43.9C50.0338 43.67 49.2238 43.15 49.2238 41.81C49.2238 40.64 50.2238 39.76 51.7138 39.76C53.2538 39.76 54.1738 40.46 54.3138 41.83H53.0938C52.9638 41.08 52.5338 40.76 51.7138 40.76C50.9038 40.76 50.4838 41.15 50.4838 41.7C50.4838 42.28 50.7238 42.57 51.9638 42.75C53.6438 42.98 54.5138 43.46 54.5138 44.89C54.5138 46.13 53.4638 47.1 51.8838 47.1Z" fill="white"/>
<circle cx="39.5" cy="35.5" r="34.75" stroke="#B98141" stroke-width="1.5"/>
<path d="M18.8284 21.9605L12.2643 18.5871L13.1664 17.5694L17.9418 20.0965L14.911 15.6013L15.6406 14.7781L20.558 17.1903L17.4316 12.7576L18.2541 11.8297L22.4502 17.8747L21.568 18.8699L16.7099 16.4963L19.6708 21.0102L18.8284 21.9605Z" fill="#B98141"/>
<path d="M23.9763 16.5672L22.3608 9.24304L23.867 8.37189L29.5943 13.318L28.3997 14.0089L26.9942 12.7773L24.631 14.1441L25.0583 15.9414L23.9763 16.5672ZM23.6063 9.78166L24.3995 13.1576L26.226 12.1012L23.6063 9.78166Z" fill="#B98141"/>
<path d="M30.5813 13.0746L28.6072 6.20256L30.9269 5.58719C32.4444 5.18463 33.6844 5.51771 34.0875 6.92095L34.0985 6.9594C34.4078 8.03586 33.8885 8.76319 33.0918 9.21245L35.8878 11.667L34.4959 12.0362L31.8905 9.738L31.0689 9.95594L31.8668 12.7336L30.5813 13.0746ZM30.8066 9.04287L31.8408 8.76852C32.7011 8.54032 33.0504 8.05458 32.8406 7.32412L32.8296 7.28568C32.6032 6.49755 32.0329 6.3592 31.2113 6.57715L30.1771 6.8515L30.8066 9.04287Z" fill="#B98141"/>
<path d="M36.674 11.6744L36.4252 4.52873L38.8249 4.49003C40.3947 4.46471 41.5168 5.08658 41.5676 6.5457L41.569 6.58568C41.608 7.705 40.9279 8.28594 40.046 8.53015L42.1633 11.5859L40.7235 11.6091L38.7531 8.75099L37.9033 8.7647L38.0038 11.6529L36.674 11.6744ZM37.8702 7.81527L38.9401 7.79802C39.8299 7.78367 40.2867 7.39632 40.2602 6.63678L40.2588 6.59681C40.2303 5.7773 39.7106 5.5057 38.8607 5.5194L37.7909 5.53666L37.8702 7.81527Z" fill="#B98141"/>
<path d="M42.6151 11.6559L46.5817 5.27673L48.27 5.69782L48.9122 13.2265L47.5732 12.8926L47.4281 11.0322L44.7792 10.3716L43.828 11.9584L42.6151 11.6559ZM47.0971 6.52858L45.3035 9.5027L47.3508 10.0133L47.0971 6.52858Z" fill="#B98141"/>
<path d="M49.8498 13.6866L53.4087 7.48526L54.7869 8.2782L54.8225 14.2634L57.3958 9.7793L58.4446 10.3827L54.8858 16.5841L53.6896 15.8959L53.6263 9.53712L50.8986 14.2901L49.8498 13.6866Z" fill="#B98141"/>
<path d="M56.9817 18.4882L61.2367 14.1173L59.7988 12.7417L60.5312 11.9893L64.3753 15.667L63.6429 16.4193L62.2049 15.0437L57.9499 19.4146L56.9817 18.4882Z" fill="#B98141"/>
<path d="M60.839 22.8852L63.4562 21.2238L65.5734 17.073L66.381 18.3012L64.7665 21.2329L68.128 20.9584L68.8422 22.0446L64.1839 22.3488L61.5751 24.0048L60.839 22.8852Z" fill="#B98141"/>
</svg>
