<svg width="61" height="54" viewBox="0 0 61 54" fill="none" xmlns="http://www.w3.org/2000/svg">
<circle cx="30.5" cy="27.5" r="19.5" stroke="white" stroke-width="2"/>
<path d="M26.5186 26V25.636L30.1866 21.758C31.1526 20.736 31.7686 19.854 31.7686 18.944C31.7686 18.118 31.3066 17.586 30.4386 17.586C29.5566 17.586 28.9966 18.104 28.8426 19.42H26.7846C26.8966 17.11 28.2966 15.85 30.5366 15.85C32.7486 15.85 34.0086 17.082 34.0086 18.888C34.0086 20.218 33.2386 21.31 32.0766 22.43L30.1866 24.278H34.0786V26H26.5186Z" fill="white"/>
<path d="M18.9436 36V33.552L17.0796 30.28H18.8636L19.8316 32.208L20.7996 30.28H22.3676L20.5916 33.552V36H18.9436ZM22.9817 36V30.28H26.9337V31.544H24.6137V32.528H26.4617V33.696H24.6137V34.736H27.0617V36H22.9817ZM27.4321 36L29.2641 30.28H31.3841L33.2001 36H31.4641L31.1601 34.936H29.2641L28.9601 36H27.4321ZM30.2161 31.608L29.5841 33.808H30.8401L30.2161 31.608ZM33.8567 36V30.28H36.0967C37.5927 30.28 38.4247 30.888 38.4247 32.096V32.128C38.4247 32.944 37.9927 33.4 37.3927 33.632L38.7607 36H37.0327L35.8727 33.952H35.4887V36H33.8567ZM35.4887 32.888H36.0167C36.5687 32.888 36.8407 32.656 36.8407 32.192V32.16C36.8407 31.696 36.5527 31.512 36.0247 31.512H35.4887V32.888ZM41.4527 36.096C39.8527 36.096 39.0367 35.424 38.9887 34.184H40.5487C40.5887 34.592 40.7727 34.928 41.4527 34.928C41.9247 34.928 42.1887 34.696 42.1887 34.36C42.1887 34.008 41.9727 33.912 41.2847 33.808C39.6687 33.616 39.1247 33.136 39.1247 31.984C39.1247 30.952 39.9727 30.2 41.3407 30.2C42.7167 30.2 43.4927 30.776 43.5967 31.984H42.0767C42.0207 31.576 41.7887 31.368 41.3407 31.368C40.9007 31.368 40.6767 31.568 40.6767 31.856C40.6767 32.176 40.8527 32.32 41.5647 32.416C43.0127 32.576 43.7567 32.952 43.7567 34.192C43.7567 35.24 42.9247 36.096 41.4527 36.096Z" fill="white"/>
</svg>
