<svg width="36" height="31" viewBox="0 0 36 31" fill="none" xmlns="http://www.w3.org/2000/svg">
<path d="M3.33949 14.9274H3.35323C3.42581 14.9273 3.49558 14.8997 3.54816 14.8504C3.60074 14.8011 3.63214 14.7338 3.63588 14.6624C3.81304 10.9559 5.39729 7.45043 8.07439 4.84128C10.7515 2.23213 14.3259 0.709898 18.0886 0.576522C21.8513 0.443147 25.5274 1.70837 28.3878 4.12124C31.2482 6.5341 33.0839 9.91834 33.5308 13.6027L31.6656 12.0549L31.3001 12.4832L33.9091 14.6475L35.909 11.9261L35.4491 11.5973L34.0877 13.4499C33.6051 9.63421 31.6871 6.13596 28.713 3.64701C25.739 1.15806 21.9254 -0.140344 18.0267 0.0086015C14.1279 0.157547 10.4278 1.743 7.65815 4.45137C4.88853 7.15975 3.25109 10.7938 3.06968 14.6349C3.06753 14.672 3.07292 14.7091 3.08551 14.7441C3.0981 14.7791 3.11766 14.8113 3.14303 14.8388C3.1684 14.8663 3.19908 14.8885 3.23327 14.9042C3.26746 14.9198 3.30447 14.9286 3.34215 14.93L3.33949 14.9274ZM33.9224 15.7867C33.8476 15.7844 33.7748 15.8109 33.7194 15.8606C33.6641 15.9103 33.6306 15.9793 33.626 16.053C33.4493 19.7595 31.8655 23.2651 29.1887 25.8745C26.5119 28.484 22.9377 30.0066 19.175 30.1403C15.4123 30.274 11.7361 29.009 8.87557 26.5964C6.01502 24.1837 4.17911 20.7996 3.73202 17.1153L5.59278 18.6614L5.95785 18.233L3.3488 16.0692L1.34937 18.7897L1.80924 19.1189L3.17291 17.2624C3.65596 21.0775 5.57399 24.5751 8.54774 27.0636C11.5215 29.5521 15.3345 30.8504 19.2328 30.7017C23.131 30.553 26.8308 28.9681 29.6005 26.2605C32.3701 23.5529 34.0081 19.9197 34.1904 16.0792C34.1934 16.0063 34.1672 15.9352 34.1177 15.881C34.0681 15.8268 33.9989 15.7939 33.9251 15.7893L33.9224 15.7867Z" fill="#757575"/>
<path fill-rule="evenodd" clip-rule="evenodd" d="M28.9622 15.5C28.9622 21.299 24.2611 26 18.4622 26C12.6632 26 7.96216 21.299 7.96216 15.5C7.96216 9.70101 12.6632 5 18.4622 5C24.2611 5 28.9622 9.70101 28.9622 15.5ZM16.2215 16V15.76L18.9215 12.91C19.6015 12.19 20.0115 11.56 20.0115 10.88C20.0115 10.21 19.6315 9.79 18.9415 9.79C18.2315 9.79 17.7815 10.2 17.6615 11.21H16.4415C16.5315 9.65 17.4715 8.75 18.9815 8.75C20.4615 8.75 21.3415 9.6 21.3415 10.86C21.3415 11.79 20.7915 12.6 19.9415 13.42L18.3515 14.97H21.3915V16H16.2215ZM13.0856 19.1545V20.3945H13.6216V19.1585L14.5176 17.5345H13.9976L13.3696 18.7185L12.7256 17.5345H12.1376L13.0856 19.1545ZM14.9132 17.5345V20.3945H16.7692V19.9745H15.4452V19.1385H16.4532V18.7385H15.4452V17.9545H16.7012V17.5345H14.9132ZM17.9851 17.5345L17.0291 20.3945H17.5291L17.7531 19.6865H18.8451L19.0731 20.3945H19.6251L18.6811 17.5345H17.9851ZM17.8771 19.2985L18.3011 17.9705L18.7211 19.2985H17.8771ZM20.0616 17.5345V20.3945H20.5936V19.2385H20.9336L21.6816 20.3945H22.2576L21.4536 19.1585C21.8096 19.0665 22.0896 18.8385 22.0896 18.3905V18.3745C22.0896 17.7905 21.6496 17.5345 21.0216 17.5345H20.0616ZM21.0216 18.8585H20.5936V17.9465H21.0216C21.3616 17.9465 21.5656 18.0585 21.5656 18.3865V18.4025C21.5656 18.7065 21.3776 18.8585 21.0216 18.8585ZM22.4677 19.5065C22.5077 20.0465 22.8357 20.4345 23.6157 20.4345C24.2477 20.4345 24.6677 20.0465 24.6677 19.5505C24.6677 18.9785 24.3197 18.7865 23.6477 18.6945C23.1517 18.6225 23.0557 18.5065 23.0557 18.2745C23.0557 18.0545 23.2237 17.8985 23.5477 17.8985C23.8757 17.8985 24.0477 18.0265 24.0997 18.3265H24.5877C24.5317 17.7785 24.1637 17.4985 23.5477 17.4985C22.9517 17.4985 22.5517 17.8505 22.5517 18.3185C22.5517 18.8545 22.8757 19.0625 23.5597 19.1545C24.0237 19.2305 24.1557 19.3305 24.1557 19.5945C24.1557 19.8585 23.9317 20.0345 23.6157 20.0345C23.1317 20.0345 23.0157 19.7945 22.9797 19.5065H22.4677Z" fill="#757575"/>
</svg>
