<svg width="40" height="40" viewBox="0 0 40 40" fill="none" xmlns="http://www.w3.org/2000/svg">
<path d="M20 0C16.0444 0 12.1776 1.17298 8.8886 3.37061C5.59962 5.56824 3.03617 8.69182 1.52242 12.3463C0.00866421 16.0009 -0.3874 20.0222 0.384304 23.9018C1.15601 27.7814 3.06083 31.3451 5.85787 34.1421C8.65492 36.9392 12.2186 38.844 16.0982 39.6157C19.9778 40.3874 23.9991 39.9913 27.6537 38.4776C31.3082 36.9638 34.4318 34.4004 36.6294 31.1114C38.827 27.8224 40 23.9556 40 20C39.994 14.6975 37.885 9.61385 34.1356 5.86441C30.3861 2.11497 25.3025 0.00593217 20 0ZM20 37.4794C16.5429 37.4794 13.1634 36.4542 10.289 34.5336C7.4145 32.6129 5.17413 29.883 3.85116 26.6891C2.52819 23.4951 2.18204 19.9806 2.85649 16.5899C3.53093 13.1993 5.19568 10.0847 7.64022 7.64021C10.0848 5.19568 13.1993 3.53093 16.5899 2.85648C19.9806 2.18204 23.4951 2.52818 26.6891 3.85115C29.883 5.17413 32.6129 7.41449 34.5336 10.289C36.4542 13.1634 37.4794 16.5429 37.4794 20C37.4741 24.6342 35.6308 29.077 32.3539 32.3539C29.0771 35.6308 24.6342 37.4741 20 37.4794Z" fill="url(#paint0_linear_361_603)"/>
<path fill-rule="evenodd" clip-rule="evenodd" d="M10.5834 10.5144C10.5834 10.9878 10.9671 11.3715 11.4405 11.3715H28.5833C29.0567 11.3715 29.4405 10.9878 29.4405 10.5144C29.4405 10.041 29.0567 9.65723 28.5833 9.65723H11.4405C10.9671 9.65723 10.5834 10.041 10.5834 10.5144ZM19.0811 15.9072L12.0293 23.2528C11.7015 23.5943 11.17 23.5943 10.8422 23.2528L10.8172 23.2268C10.4893 22.8853 10.4893 22.3316 10.8172 21.9902L19.2786 13.1762C19.293 13.1586 19.3081 13.1415 19.324 13.1249L19.349 13.0989C19.6629 12.7719 20.1635 12.758 20.4933 13.0571C20.5087 13.071 20.5237 13.0855 20.5382 13.1007L20.5632 13.1267L20.5757 13.14L29.0812 21.9998C29.409 22.3413 29.409 22.895 29.0812 23.2365L29.0562 23.2626C28.7283 23.6041 28.1968 23.6041 27.8689 23.2626L20.7954 15.8942V31.0862C20.7954 31.5596 20.4116 31.9434 19.9382 31.9434C19.4648 31.9434 19.0811 31.5596 19.0811 31.0862V15.9072Z" fill="black"/>
<path fill-rule="evenodd" clip-rule="evenodd" d="M10.5834 10.5144C10.5834 10.9878 10.9671 11.3715 11.4405 11.3715H28.5833C29.0567 11.3715 29.4405 10.9878 29.4405 10.5144C29.4405 10.041 29.0567 9.65723 28.5833 9.65723H11.4405C10.9671 9.65723 10.5834 10.041 10.5834 10.5144ZM19.0811 15.9072L12.0293 23.2528C11.7015 23.5943 11.17 23.5943 10.8422 23.2528L10.8172 23.2268C10.4893 22.8853 10.4893 22.3316 10.8172 21.9902L19.2786 13.1762C19.293 13.1586 19.3081 13.1415 19.324 13.1249L19.349 13.0989C19.6629 12.7719 20.1635 12.758 20.4933 13.0571C20.5087 13.071 20.5237 13.0855 20.5382 13.1007L20.5632 13.1267L20.5757 13.14L29.0812 21.9998C29.409 22.3413 29.409 22.895 29.0812 23.2365L29.0562 23.2626C28.7283 23.6041 28.1968 23.6041 27.8689 23.2626L20.7954 15.8942V31.0862C20.7954 31.5596 20.4116 31.9434 19.9382 31.9434C19.4648 31.9434 19.0811 31.5596 19.0811 31.0862V15.9072Z" fill="url(#paint1_linear_361_603)"/>
<defs>
<linearGradient id="paint0_linear_361_603" x1="20" y1="0" x2="20" y2="40" gradientUnits="userSpaceOnUse">
<stop stop-color="#976E39"/>
<stop offset="1" stop-color="#F2CF98"/>
</linearGradient>
<linearGradient id="paint1_linear_361_603" x1="20.0059" y1="9.65723" x2="20.0059" y2="31.9434" gradientUnits="userSpaceOnUse">
<stop stop-color="#976E39"/>
<stop offset="1" stop-color="#F2CF98"/>
</linearGradient>
</defs>
</svg>
