<svg width="40" height="40" viewBox="0 0 40 40" fill="none" xmlns="http://www.w3.org/2000/svg">
<path d="M20 0C16.0444 0 12.1776 1.17298 8.8886 3.37061C5.59962 5.56824 3.03617 8.69182 1.52242 12.3463C0.00866421 16.0009 -0.3874 20.0222 0.384304 23.9018C1.15601 27.7814 3.06083 31.3451 5.85787 34.1421C8.65492 36.9392 12.2186 38.844 16.0982 39.6157C19.9778 40.3874 23.9991 39.9913 27.6537 38.4776C31.3082 36.9638 34.4318 34.4004 36.6294 31.1114C38.827 27.8224 40 23.9556 40 20C39.994 14.6975 37.885 9.61385 34.1356 5.86441C30.3861 2.11497 25.3025 0.00593217 20 0ZM20 37.4794C16.5429 37.4794 13.1634 36.4542 10.289 34.5336C7.4145 32.6129 5.17413 29.883 3.85116 26.6891C2.52819 23.4951 2.18204 19.9806 2.85649 16.5899C3.53093 13.1993 5.19568 10.0847 7.64022 7.64021C10.0848 5.19568 13.1993 3.53093 16.5899 2.85648C19.9806 2.18204 23.4951 2.52818 26.6891 3.85115C29.883 5.17413 32.6129 7.41449 34.5336 10.289C36.4542 13.1634 37.4794 16.5429 37.4794 20C37.4741 24.6342 35.6308 29.077 32.3539 32.3539C29.0771 35.6308 24.6342 37.4741 20 37.4794Z" fill="url(#paint0_linear_361_622)"/>
<g clip-path="url(#clip0_361_622)">
<path fill-rule="evenodd" clip-rule="evenodd" d="M8 20.8568V19.1425C8 17.8156 9.00509 16.7234 10.2955 16.5857C10.4188 16.2351 10.5606 15.8932 10.7196 15.5613C9.82016 14.5515 9.85466 13.0028 10.8231 12.0344L12.0353 10.8222C13.0037 9.85379 14.5524 9.81929 15.5621 10.7187C15.8937 10.5599 16.2352 10.4183 16.5855 10.295C16.7234 9.00484 17.8155 8 19.1423 8H20.8565C22.183 8 23.2749 9.00437 23.4131 10.2941C23.7251 10.4038 24.03 10.528 24.3273 10.666C25.3375 9.82104 26.8439 9.87312 27.793 10.8222L29.0052 12.0344C29.9327 12.9619 30.0035 14.4216 29.2178 15.4304C29.4029 15.8032 29.5661 16.1889 29.7058 16.5859C30.9956 16.7242 32 17.816 32 19.1425V20.8568C32 22.1833 30.9956 23.2752 29.7058 23.4135C29.5792 23.7734 29.4332 24.124 29.2691 24.4641C30.0006 25.4697 29.9128 26.8858 29.0058 27.7928L27.7936 29.005C26.8866 29.912 25.4705 29.9998 24.4649 29.2682C24.1245 29.4325 23.7735 29.5786 23.4132 29.7052C23.2752 30.9953 22.1832 32 20.8565 32H19.1423C17.8152 32 16.7231 30.9948 16.5854 29.7044C16.189 29.5648 15.8038 29.4018 15.4315 29.2169C14.4226 30.0034 12.9624 29.9326 12.0347 29.005L10.8225 27.7928C9.87317 26.8434 9.82129 25.3366 10.6669 24.3263C10.5291 24.0295 10.405 23.725 10.2955 23.4136C9.00509 23.276 8 22.1838 8 20.8568ZM20.8565 9.71428C21.3299 9.71428 21.7137 10.098 21.7137 10.5714V10.8987C21.7137 11.3064 22.0024 11.6532 22.3939 11.7669C22.9654 11.9327 23.5122 12.1564 24.0276 12.4312C24.3832 12.6208 24.826 12.577 25.111 12.2921L25.3687 12.0344C25.7034 11.6997 26.2462 11.6997 26.5809 12.0344L27.793 13.2466C28.1278 13.5813 28.1278 14.124 27.793 14.4588L27.5851 14.6667C27.2936 14.9582 27.2551 15.4138 27.4588 15.7723C27.7843 16.3454 28.0457 16.9596 28.2331 17.6052C28.3468 17.9968 28.6936 18.2854 29.1012 18.2854H29.4286C29.902 18.2854 30.2857 18.6692 30.2857 19.1425V20.8568C30.2857 21.3302 29.902 21.7139 29.4286 21.7139H29.1012C28.6936 21.7139 28.3468 22.0026 28.2331 22.3941C28.0564 23.0026 27.8142 23.583 27.5145 24.1275C27.3178 24.4846 27.359 24.9338 27.6472 25.222L27.7936 25.3685C28.1284 25.7032 28.1284 26.2458 27.7936 26.5806L26.5815 27.7928C26.2468 28.1275 25.704 28.1275 25.3693 27.7928L25.2229 27.6464C24.9346 27.3581 24.4854 27.317 24.1283 27.5135C23.5836 27.8134 23.0027 28.0558 22.3939 28.2325C22.0024 28.3462 21.7137 28.693 21.7137 29.1006V29.4286C21.7137 29.902 21.3299 30.2857 20.8565 30.2857H19.1423C18.6689 30.2857 18.2851 29.902 18.2851 29.4286V29.0999C18.2851 28.6924 17.9965 28.3456 17.6051 28.2319C16.9598 28.0444 16.346 27.7832 15.7732 27.4578C15.4148 27.2542 14.9591 27.2926 14.6676 27.5842L14.459 27.7928C14.1243 28.1275 13.5816 28.1275 13.2469 27.7928L12.0347 26.5806C11.6999 26.2458 11.6999 25.7032 12.0347 25.3685L12.293 25.11C12.578 24.8251 12.6217 24.3823 12.4322 24.0268C12.1575 23.5116 11.9339 22.9652 11.7681 22.3941C11.6544 22.0026 11.3077 21.7139 10.9 21.7139H10.5714C10.098 21.7139 9.71429 21.3302 9.71429 20.8568V19.1425C9.71429 18.6692 10.098 18.2854 10.5714 18.2854H10.9C11.3077 18.2854 11.6544 17.9968 11.7681 17.6052C11.9447 16.9968 12.187 16.4164 12.4867 15.872C12.6833 15.5149 12.6421 15.0656 12.3539 14.7774L12.0353 14.4588C11.7005 14.124 11.7005 13.5813 12.0353 13.2466L13.2475 12.0344C13.5822 11.6997 14.1249 11.6997 14.4596 12.0344L14.7783 12.353C15.0665 12.6413 15.5157 12.6824 15.8728 12.4858C16.4169 12.1863 16.9971 11.9441 17.6051 11.7675C17.9965 11.6538 18.2851 11.3071 18.2851 10.8994V10.5714C18.2851 10.098 18.6689 9.71428 19.1423 9.71428H20.8565ZM25.1428 20.0002C25.1428 22.8405 22.8403 25.143 20 25.143C17.1597 25.143 14.8571 22.8405 14.8571 20.0002C14.8571 17.1598 17.1597 14.8573 20 14.8573C22.8403 14.8573 25.1428 17.1598 25.1428 20.0002ZM20 23.4287C21.8935 23.4287 23.4285 21.8937 23.4285 20.0002C23.4285 18.1066 21.8935 16.5716 20 16.5716C18.1065 16.5716 16.5714 18.1066 16.5714 20.0002C16.5714 21.8937 18.1065 23.4287 20 23.4287Z" fill="black"/>
<path fill-rule="evenodd" clip-rule="evenodd" d="M8 20.8568V19.1425C8 17.8156 9.00509 16.7234 10.2955 16.5857C10.4188 16.2351 10.5606 15.8932 10.7196 15.5613C9.82016 14.5515 9.85466 13.0028 10.8231 12.0344L12.0353 10.8222C13.0037 9.85379 14.5524 9.81929 15.5621 10.7187C15.8937 10.5599 16.2352 10.4183 16.5855 10.295C16.7234 9.00484 17.8155 8 19.1423 8H20.8565C22.183 8 23.2749 9.00437 23.4131 10.2941C23.7251 10.4038 24.03 10.528 24.3273 10.666C25.3375 9.82104 26.8439 9.87312 27.793 10.8222L29.0052 12.0344C29.9327 12.9619 30.0035 14.4216 29.2178 15.4304C29.4029 15.8032 29.5661 16.1889 29.7058 16.5859C30.9956 16.7242 32 17.816 32 19.1425V20.8568C32 22.1833 30.9956 23.2752 29.7058 23.4135C29.5792 23.7734 29.4332 24.124 29.2691 24.4641C30.0006 25.4697 29.9128 26.8858 29.0058 27.7928L27.7936 29.005C26.8866 29.912 25.4705 29.9998 24.4649 29.2682C24.1245 29.4325 23.7735 29.5786 23.4132 29.7052C23.2752 30.9953 22.1832 32 20.8565 32H19.1423C17.8152 32 16.7231 30.9948 16.5854 29.7044C16.189 29.5648 15.8038 29.4018 15.4315 29.2169C14.4226 30.0034 12.9624 29.9326 12.0347 29.005L10.8225 27.7928C9.87317 26.8434 9.82129 25.3366 10.6669 24.3263C10.5291 24.0295 10.405 23.725 10.2955 23.4136C9.00509 23.276 8 22.1838 8 20.8568ZM20.8565 9.71428C21.3299 9.71428 21.7137 10.098 21.7137 10.5714V10.8987C21.7137 11.3064 22.0024 11.6532 22.3939 11.7669C22.9654 11.9327 23.5122 12.1564 24.0276 12.4312C24.3832 12.6208 24.826 12.577 25.111 12.2921L25.3687 12.0344C25.7034 11.6997 26.2462 11.6997 26.5809 12.0344L27.793 13.2466C28.1278 13.5813 28.1278 14.124 27.793 14.4588L27.5851 14.6667C27.2936 14.9582 27.2551 15.4138 27.4588 15.7723C27.7843 16.3454 28.0457 16.9596 28.2331 17.6052C28.3468 17.9968 28.6936 18.2854 29.1012 18.2854H29.4286C29.902 18.2854 30.2857 18.6692 30.2857 19.1425V20.8568C30.2857 21.3302 29.902 21.7139 29.4286 21.7139H29.1012C28.6936 21.7139 28.3468 22.0026 28.2331 22.3941C28.0564 23.0026 27.8142 23.583 27.5145 24.1275C27.3178 24.4846 27.359 24.9338 27.6472 25.222L27.7936 25.3685C28.1284 25.7032 28.1284 26.2458 27.7936 26.5806L26.5815 27.7928C26.2468 28.1275 25.704 28.1275 25.3693 27.7928L25.2229 27.6464C24.9346 27.3581 24.4854 27.317 24.1283 27.5135C23.5836 27.8134 23.0027 28.0558 22.3939 28.2325C22.0024 28.3462 21.7137 28.693 21.7137 29.1006V29.4286C21.7137 29.902 21.3299 30.2857 20.8565 30.2857H19.1423C18.6689 30.2857 18.2851 29.902 18.2851 29.4286V29.0999C18.2851 28.6924 17.9965 28.3456 17.6051 28.2319C16.9598 28.0444 16.346 27.7832 15.7732 27.4578C15.4148 27.2542 14.9591 27.2926 14.6676 27.5842L14.459 27.7928C14.1243 28.1275 13.5816 28.1275 13.2469 27.7928L12.0347 26.5806C11.6999 26.2458 11.6999 25.7032 12.0347 25.3685L12.293 25.11C12.578 24.8251 12.6217 24.3823 12.4322 24.0268C12.1575 23.5116 11.9339 22.9652 11.7681 22.3941C11.6544 22.0026 11.3077 21.7139 10.9 21.7139H10.5714C10.098 21.7139 9.71429 21.3302 9.71429 20.8568V19.1425C9.71429 18.6692 10.098 18.2854 10.5714 18.2854H10.9C11.3077 18.2854 11.6544 17.9968 11.7681 17.6052C11.9447 16.9968 12.187 16.4164 12.4867 15.872C12.6833 15.5149 12.6421 15.0656 12.3539 14.7774L12.0353 14.4588C11.7005 14.124 11.7005 13.5813 12.0353 13.2466L13.2475 12.0344C13.5822 11.6997 14.1249 11.6997 14.4596 12.0344L14.7783 12.353C15.0665 12.6413 15.5157 12.6824 15.8728 12.4858C16.4169 12.1863 16.9971 11.9441 17.6051 11.7675C17.9965 11.6538 18.2851 11.3071 18.2851 10.8994V10.5714C18.2851 10.098 18.6689 9.71428 19.1423 9.71428H20.8565ZM25.1428 20.0002C25.1428 22.8405 22.8403 25.143 20 25.143C17.1597 25.143 14.8571 22.8405 14.8571 20.0002C14.8571 17.1598 17.1597 14.8573 20 14.8573C22.8403 14.8573 25.1428 17.1598 25.1428 20.0002ZM20 23.4287C21.8935 23.4287 23.4285 21.8937 23.4285 20.0002C23.4285 18.1066 21.8935 16.5716 20 16.5716C18.1065 16.5716 16.5714 18.1066 16.5714 20.0002C16.5714 21.8937 18.1065 23.4287 20 23.4287Z" fill="url(#paint1_linear_361_622)"/>
</g>
<defs>
<linearGradient id="paint0_linear_361_622" x1="20" y1="0" x2="20" y2="40" gradientUnits="userSpaceOnUse">
<stop stop-color="#976E39"/>
<stop offset="1" stop-color="#F2CF98"/>
</linearGradient>
<linearGradient id="paint1_linear_361_622" x1="20" y1="8" x2="20" y2="32" gradientUnits="userSpaceOnUse">
<stop stop-color="#976E39"/>
<stop offset="1" stop-color="#F2CF98"/>
</linearGradient>
<clipPath id="clip0_361_622">
<rect width="24" height="24" fill="white" transform="translate(8 8)"/>
</clipPath>
</defs>
</svg>
