<svg width="40" height="40" viewBox="0 0 40 40" fill="none" xmlns="http://www.w3.org/2000/svg">
<path d="M20 0C16.0444 0 12.1776 1.17298 8.8886 3.37061C5.59962 5.56824 3.03617 8.69182 1.52242 12.3463C0.00866421 16.0009 -0.3874 20.0222 0.384304 23.9018C1.15601 27.7814 3.06083 31.3451 5.85787 34.1421C8.65492 36.9392 12.2186 38.844 16.0982 39.6157C19.9778 40.3874 23.9991 39.9913 27.6537 38.4776C31.3082 36.9638 34.4318 34.4004 36.6294 31.1114C38.827 27.8224 40 23.9556 40 20C39.994 14.6975 37.885 9.61385 34.1356 5.86441C30.3861 2.11497 25.3025 0.00593217 20 0ZM20 37.4794C16.5429 37.4794 13.1634 36.4542 10.289 34.5336C7.4145 32.6129 5.17413 29.883 3.85116 26.6891C2.52819 23.4951 2.18204 19.9806 2.85649 16.5899C3.53093 13.1993 5.19568 10.0847 7.64022 7.64021C10.0848 5.19568 13.1993 3.53093 16.5899 2.85648C19.9806 2.18204 23.4951 2.52818 26.6891 3.85115C29.883 5.17413 32.6129 7.41449 34.5336 10.289C36.4542 13.1634 37.4794 16.5429 37.4794 20C37.4741 24.6342 35.6308 29.077 32.3539 32.3539C29.0771 35.6308 24.6342 37.4741 20 37.4794Z" fill="url(#paint0_linear_361_585)"/>
<path fill-rule="evenodd" clip-rule="evenodd" d="M14.7499 12C14.7499 11.3096 15.3095 10.75 15.9999 10.75H25.5999C28.4994 10.75 30.8499 13.1005 30.8499 16C30.8499 18.8995 28.4994 21.25 25.5999 21.25H14.3999C12.8811 21.25 11.6499 22.4812 11.6499 24C11.6499 25.5188 12.8811 26.75 14.3999 26.75H23.9999C24.6903 26.75 25.2499 27.3096 25.2499 28C25.2499 28.6903 24.6903 29.25 23.9999 29.25H14.3999C11.5004 29.25 9.1499 26.8995 9.1499 24C9.1499 21.1005 11.5004 18.75 14.3999 18.75H25.5999C27.1187 18.75 28.3499 17.5188 28.3499 16C28.3499 14.4812 27.1187 13.25 25.5999 13.25H15.9999C15.3095 13.25 14.7499 12.6904 14.7499 12ZM13.2499 12C13.2499 12.6904 12.6903 13.25 11.9999 13.25H11.1999C10.5095 13.25 9.9499 12.6904 9.9499 12C9.9499 11.3096 10.5095 10.75 11.1999 10.75H11.9999C12.6903 10.75 13.2499 11.3096 13.2499 12ZM28.7999 29.25C29.4902 29.25 30.0499 28.6903 30.0499 28C30.0499 27.3096 29.4902 26.75 28.7999 26.75H27.9999C27.3095 26.75 26.7499 27.3096 26.7499 28C26.7499 28.6903 27.3095 29.25 27.9999 29.25H28.7999Z" fill="black"/>
<path fill-rule="evenodd" clip-rule="evenodd" d="M14.7499 12C14.7499 11.3096 15.3095 10.75 15.9999 10.75H25.5999C28.4994 10.75 30.8499 13.1005 30.8499 16C30.8499 18.8995 28.4994 21.25 25.5999 21.25H14.3999C12.8811 21.25 11.6499 22.4812 11.6499 24C11.6499 25.5188 12.8811 26.75 14.3999 26.75H23.9999C24.6903 26.75 25.2499 27.3096 25.2499 28C25.2499 28.6903 24.6903 29.25 23.9999 29.25H14.3999C11.5004 29.25 9.1499 26.8995 9.1499 24C9.1499 21.1005 11.5004 18.75 14.3999 18.75H25.5999C27.1187 18.75 28.3499 17.5188 28.3499 16C28.3499 14.4812 27.1187 13.25 25.5999 13.25H15.9999C15.3095 13.25 14.7499 12.6904 14.7499 12ZM13.2499 12C13.2499 12.6904 12.6903 13.25 11.9999 13.25H11.1999C10.5095 13.25 9.9499 12.6904 9.9499 12C9.9499 11.3096 10.5095 10.75 11.1999 10.75H11.9999C12.6903 10.75 13.2499 11.3096 13.2499 12ZM28.7999 29.25C29.4902 29.25 30.0499 28.6903 30.0499 28C30.0499 27.3096 29.4902 26.75 28.7999 26.75H27.9999C27.3095 26.75 26.7499 27.3096 26.7499 28C26.7499 28.6903 27.3095 29.25 27.9999 29.25H28.7999Z" fill="url(#paint1_linear_361_585)"/>
<defs>
<linearGradient id="paint0_linear_361_585" x1="20" y1="0" x2="20" y2="40" gradientUnits="userSpaceOnUse">
<stop stop-color="#976E39"/>
<stop offset="1" stop-color="#F2CF98"/>
</linearGradient>
<linearGradient id="paint1_linear_361_585" x1="19.9999" y1="10.75" x2="19.9999" y2="29.25" gradientUnits="userSpaceOnUse">
<stop stop-color="#976E39"/>
<stop offset="1" stop-color="#F2CF98"/>
</linearGradient>
</defs>
</svg>
