<svg width="40" height="40" viewBox="0 0 40 40" fill="none" xmlns="http://www.w3.org/2000/svg">
<path d="M20 0C16.0444 0 12.1776 1.17298 8.8886 3.37061C5.59962 5.56824 3.03617 8.69182 1.52242 12.3463C0.00866421 16.0009 -0.3874 20.0222 0.384304 23.9018C1.15601 27.7814 3.06082 31.3451 5.85787 34.1421C8.65492 36.9392 12.2186 38.844 16.0982 39.6157C19.9778 40.3874 23.9991 39.9913 27.6537 38.4776C31.3082 36.9638 34.4318 34.4004 36.6294 31.1114C38.827 27.8224 40 23.9556 40 20C39.994 14.6975 37.885 9.61385 34.1356 5.86441C30.3861 2.11497 25.3025 0.00593217 20 0ZM20 37.4794C16.5429 37.4794 13.1634 36.4542 10.289 34.5336C7.4145 32.6129 5.17413 29.883 3.85116 26.6891C2.52819 23.4951 2.18204 19.9806 2.85649 16.5899C3.53093 13.1993 5.19568 10.0847 7.64022 7.64021C10.0848 5.19568 13.1993 3.53093 16.5899 2.85648C19.9806 2.18204 23.4951 2.52818 26.6891 3.85115C29.883 5.17413 32.6129 7.41449 34.5336 10.289C36.4542 13.1634 37.4794 16.5429 37.4794 20C37.4741 24.6342 35.6308 29.077 32.3539 32.3539C29.077 35.6308 24.6342 37.4741 20 37.4794Z" fill="url(#paint0_linear_361_594)"/>
<path fill-rule="evenodd" clip-rule="evenodd" d="M20.41 7.08987L29.41 11.0899C29.5854 11.1687 29.7344 11.2965 29.8391 11.4579C29.9437 11.6193 29.9996 11.8075 30 11.9999V20.5599C29.9931 21.7773 29.7305 22.9796 29.2292 24.089C28.7279 25.1984 27.9991 26.1901 27.09 26.9999L20.66 32.7099C20.4775 32.8702 20.2429 32.9586 20 32.9586C19.7571 32.9586 19.5225 32.8702 19.34 32.7099L12.91 26.9999C12.0009 26.1901 11.2721 25.1984 10.7708 24.089C10.2695 22.9796 10.0069 21.7773 10 20.5599V11.9999C10.0004 11.8075 10.0563 11.6193 10.1609 11.4579C10.2656 11.2965 10.4145 11.1687 10.59 11.0899L19.59 7.08987C19.7189 7.03192 19.8587 7.00195 20 7.00195C20.1413 7.00195 20.2811 7.03192 20.41 7.08987ZM27.4171 23.3005C27.8032 22.4385 28.0019 21.5044 28 20.5599V12.6499L20 9.08987L12 12.6499V20.5399C11.9981 21.4844 12.1968 22.4185 12.5829 23.2805C12.9691 24.1424 13.5339 24.9125 14.24 25.5399L20 30.6599L25.76 25.5599C26.4661 24.9325 27.0309 24.1624 27.4171 23.3005ZM16.29 17.9955C16.5563 17.9955 16.8117 18.1013 17 18.2896L18.71 20.0896L23 15.7896C23.1883 15.5906 23.4479 15.4747 23.7217 15.4672C23.9955 15.4597 24.2611 15.5613 24.46 15.7496C24.6589 15.9379 24.7748 16.1975 24.7824 16.4713C24.7899 16.7451 24.6883 17.0106 24.5 17.2096L19.5 22.2096C19.407 22.3033 19.2964 22.3777 19.1746 22.4284C19.0527 22.4792 18.922 22.5054 18.79 22.5054C18.658 22.5054 18.5273 22.4792 18.4054 22.4284C18.2835 22.3777 18.1729 22.3033 18.08 22.2096L15.58 19.7096C15.3917 19.5213 15.2859 19.2659 15.2859 18.9996C15.2859 18.7333 15.3917 18.4779 15.58 18.2896C15.7683 18.1013 16.0237 17.9955 16.29 17.9955Z" fill="black"/>
<path fill-rule="evenodd" clip-rule="evenodd" d="M20.41 7.08987L29.41 11.0899C29.5854 11.1687 29.7344 11.2965 29.8391 11.4579C29.9437 11.6193 29.9996 11.8075 30 11.9999V20.5599C29.9931 21.7773 29.7305 22.9796 29.2292 24.089C28.7279 25.1984 27.9991 26.1901 27.09 26.9999L20.66 32.7099C20.4775 32.8702 20.2429 32.9586 20 32.9586C19.7571 32.9586 19.5225 32.8702 19.34 32.7099L12.91 26.9999C12.0009 26.1901 11.2721 25.1984 10.7708 24.089C10.2695 22.9796 10.0069 21.7773 10 20.5599V11.9999C10.0004 11.8075 10.0563 11.6193 10.1609 11.4579C10.2656 11.2965 10.4145 11.1687 10.59 11.0899L19.59 7.08987C19.7189 7.03192 19.8587 7.00195 20 7.00195C20.1413 7.00195 20.2811 7.03192 20.41 7.08987ZM27.4171 23.3005C27.8032 22.4385 28.0019 21.5044 28 20.5599V12.6499L20 9.08987L12 12.6499V20.5399C11.9981 21.4844 12.1968 22.4185 12.5829 23.2805C12.9691 24.1424 13.5339 24.9125 14.24 25.5399L20 30.6599L25.76 25.5599C26.4661 24.9325 27.0309 24.1624 27.4171 23.3005ZM16.29 17.9955C16.5563 17.9955 16.8117 18.1013 17 18.2896L18.71 20.0896L23 15.7896C23.1883 15.5906 23.4479 15.4747 23.7217 15.4672C23.9955 15.4597 24.2611 15.5613 24.46 15.7496C24.6589 15.9379 24.7748 16.1975 24.7824 16.4713C24.7899 16.7451 24.6883 17.0106 24.5 17.2096L19.5 22.2096C19.407 22.3033 19.2964 22.3777 19.1746 22.4284C19.0527 22.4792 18.922 22.5054 18.79 22.5054C18.658 22.5054 18.5273 22.4792 18.4054 22.4284C18.2835 22.3777 18.1729 22.3033 18.08 22.2096L15.58 19.7096C15.3917 19.5213 15.2859 19.2659 15.2859 18.9996C15.2859 18.7333 15.3917 18.4779 15.58 18.2896C15.7683 18.1013 16.0237 17.9955 16.29 17.9955Z" fill="url(#paint1_linear_361_594)"/>
<defs>
<linearGradient id="paint0_linear_361_594" x1="20" y1="0" x2="20" y2="40" gradientUnits="userSpaceOnUse">
<stop stop-color="#976E39"/>
<stop offset="1" stop-color="#F2CF98"/>
</linearGradient>
<linearGradient id="paint1_linear_361_594" x1="20" y1="7.00195" x2="20" y2="32.9586" gradientUnits="userSpaceOnUse">
<stop stop-color="#976E39"/>
<stop offset="1" stop-color="#F2CF98"/>
</linearGradient>
</defs>
</svg>
