<svg width="40" height="40" viewBox="0 0 40 40" fill="none" xmlns="http://www.w3.org/2000/svg">
<path d="M20 0C16.0444 0 12.1776 1.17298 8.8886 3.37061C5.59962 5.56824 3.03617 8.69182 1.52242 12.3463C0.00866421 16.0009 -0.3874 20.0222 0.384304 23.9018C1.15601 27.7814 3.06083 31.3451 5.85787 34.1421C8.65492 36.9392 12.2186 38.844 16.0982 39.6157C19.9778 40.3874 23.9991 39.9913 27.6537 38.4776C31.3082 36.9638 34.4318 34.4004 36.6294 31.1114C38.827 27.8224 40 23.9556 40 20C39.994 14.6975 37.885 9.61385 34.1356 5.86441C30.3861 2.11497 25.3025 0.00593217 20 0ZM20 37.4794C16.5429 37.4794 13.1634 36.4542 10.289 34.5336C7.4145 32.6129 5.17413 29.883 3.85116 26.6891C2.52819 23.4951 2.18204 19.9806 2.85649 16.5899C3.53093 13.1993 5.19568 10.0847 7.64022 7.64021C10.0848 5.19568 13.1993 3.53093 16.5899 2.85648C19.9806 2.18204 23.4951 2.52818 26.6891 3.85115C29.883 5.17413 32.6129 7.41449 34.5336 10.289C36.4542 13.1634 37.4794 16.5429 37.4794 20C37.4741 24.6342 35.6308 29.077 32.3539 32.3539C29.0771 35.6308 24.6342 37.4741 20 37.4794Z" fill="url(#paint0_linear_361_576)"/>
<path fill-rule="evenodd" clip-rule="evenodd" d="M21.1333 20.0003C21.1333 20.6803 20.6799 21.1337 19.9999 21.1337C19.3199 21.1337 18.8666 20.6803 18.8666 20.0003V9.80032C18.8666 9.12033 19.3199 8.66699 19.9999 8.66699C20.6799 8.66699 21.1333 9.12033 21.1333 9.80032V20.0003ZM23.6266 11.6141C23.9666 11.0474 24.6466 10.8207 25.2133 11.1607C28.2733 13.0874 30.1999 16.3741 30.1999 20.0007C30.1999 25.6674 25.6666 30.2007 19.9999 30.2007C14.3333 30.2007 9.79993 25.6674 9.79993 20.0007C9.79993 16.3741 11.7266 12.9741 14.8999 11.1607C15.4666 10.8207 16.1466 11.0474 16.4866 11.6141C16.8266 12.0674 16.5999 12.7474 16.1466 13.0874C13.7666 14.5607 12.1799 17.1674 12.1799 20.0007C12.1799 24.4207 15.6933 27.9341 20.1133 27.9341C24.5333 27.9341 28.0466 24.4207 28.0466 20.0007C28.0466 17.2807 26.4599 14.6741 24.0799 13.2007C23.5133 12.8607 23.2866 12.1807 23.6266 11.6141Z" fill="black"/>
<path fill-rule="evenodd" clip-rule="evenodd" d="M21.1333 20.0003C21.1333 20.6803 20.6799 21.1337 19.9999 21.1337C19.3199 21.1337 18.8666 20.6803 18.8666 20.0003V9.80032C18.8666 9.12033 19.3199 8.66699 19.9999 8.66699C20.6799 8.66699 21.1333 9.12033 21.1333 9.80032V20.0003ZM23.6266 11.6141C23.9666 11.0474 24.6466 10.8207 25.2133 11.1607C28.2733 13.0874 30.1999 16.3741 30.1999 20.0007C30.1999 25.6674 25.6666 30.2007 19.9999 30.2007C14.3333 30.2007 9.79993 25.6674 9.79993 20.0007C9.79993 16.3741 11.7266 12.9741 14.8999 11.1607C15.4666 10.8207 16.1466 11.0474 16.4866 11.6141C16.8266 12.0674 16.5999 12.7474 16.1466 13.0874C13.7666 14.5607 12.1799 17.1674 12.1799 20.0007C12.1799 24.4207 15.6933 27.9341 20.1133 27.9341C24.5333 27.9341 28.0466 24.4207 28.0466 20.0007C28.0466 17.2807 26.4599 14.6741 24.0799 13.2007C23.5133 12.8607 23.2866 12.1807 23.6266 11.6141Z" fill="url(#paint1_linear_361_576)"/>
<defs>
<linearGradient id="paint0_linear_361_576" x1="20" y1="0" x2="20" y2="40" gradientUnits="userSpaceOnUse">
<stop stop-color="#976E39"/>
<stop offset="1" stop-color="#F2CF98"/>
</linearGradient>
<linearGradient id="paint1_linear_361_576" x1="19.9999" y1="8.66699" x2="19.9999" y2="30.2007" gradientUnits="userSpaceOnUse">
<stop stop-color="#976E39"/>
<stop offset="1" stop-color="#F2CF98"/>
</linearGradient>
</defs>
</svg>
