<svg width="40" height="40" viewBox="0 0 40 40" fill="none" xmlns="http://www.w3.org/2000/svg">
<g clip-path="url(#clip0_361_612)">
<path d="M20 0C16.0444 0 12.1776 1.17298 8.8886 3.37061C5.59962 5.56824 3.03617 8.69182 1.52242 12.3463C0.00866421 16.0009 -0.387401 20.0222 0.384304 23.9018C1.15601 27.7814 3.06083 31.3451 5.85788 34.1421C8.65493 36.9392 12.2186 38.844 16.0982 39.6157C19.9778 40.3874 23.9992 39.9914 27.6537 38.4776C31.3082 36.9638 34.4318 34.4004 36.6294 31.1114C38.827 27.8224 40 23.9556 40 20C39.9941 14.6975 37.885 9.61386 34.1356 5.86442C30.3862 2.11497 25.3025 0.00593217 20 0ZM20 37.4794C16.5429 37.4794 13.1634 36.4542 10.289 34.5336C7.4145 32.6129 5.17414 29.883 3.85116 26.6891C2.52819 23.4951 2.18204 19.9806 2.85649 16.5899C3.53094 13.1993 5.19569 10.0848 7.64022 7.64022C10.0848 5.19568 13.1993 3.53093 16.5899 2.85648C19.9806 2.18204 23.4951 2.52818 26.6891 3.85116C29.883 5.17413 32.6129 7.41449 34.5336 10.289C36.4542 13.1634 37.4794 16.5429 37.4794 20C37.4741 24.6342 35.6308 29.0771 32.3539 32.3539C29.0771 35.6308 24.6342 37.4741 20 37.4794Z" fill="url(#paint0_linear_361_612)"/>
<path fill-rule="evenodd" clip-rule="evenodd" d="M26.904 13.0963C28.8103 15.0027 28.8103 18.0936 26.904 20L25.663 21.241C25.3952 21.5088 25.3952 21.943 25.663 22.2108L26.074 22.6218C26.3418 22.8895 26.7759 22.8895 27.0437 22.6218L28.2847 21.3807C30.9535 18.7118 30.9535 14.3845 28.2847 11.7156C25.6159 9.04663 21.2888 9.04663 18.6199 11.7156L17.379 12.9566C17.1112 13.2244 17.1112 13.6586 17.379 13.9264L17.79 14.3373C18.0577 14.6051 18.4919 14.6051 18.7597 14.3374L20.0006 13.0963C21.9069 11.1899 24.9977 11.1899 26.904 13.0963ZM13.0966 26.903C15.003 28.8095 18.0937 28.8095 20 26.903L21.241 25.662C21.5087 25.3942 21.943 25.3942 22.2107 25.662L22.6216 26.073C22.8894 26.3408 22.8894 26.775 22.6216 27.0427L21.3807 28.2838C18.7119 30.9528 14.3848 30.9528 11.716 28.2838C9.04715 25.6148 9.04715 21.2876 11.716 18.6186L12.957 17.3776C13.2247 17.1098 13.6589 17.1098 13.9267 17.3776L14.3376 17.7886C14.6054 18.0564 14.6054 18.4906 14.3376 18.7584L13.0966 19.9994C11.1903 21.9058 11.1903 24.9966 13.0966 26.903ZM22.2171 16.4027C22.5183 16.1014 23.0067 16.1014 23.308 16.4027L23.5977 16.6924C23.8989 16.9937 23.8989 17.4822 23.5977 17.7835L17.7853 23.5961C17.4841 23.8974 16.9956 23.8974 16.6944 23.5961L16.4046 23.3064C16.1034 23.0051 16.1034 22.5167 16.4046 22.2154L22.2171 16.4027Z" fill="black"/>
<path fill-rule="evenodd" clip-rule="evenodd" d="M26.904 13.0963C28.8103 15.0027 28.8103 18.0936 26.904 20L25.663 21.241C25.3952 21.5088 25.3952 21.943 25.663 22.2108L26.074 22.6218C26.3418 22.8895 26.7759 22.8895 27.0437 22.6218L28.2847 21.3807C30.9535 18.7118 30.9535 14.3845 28.2847 11.7156C25.6159 9.04663 21.2888 9.04663 18.6199 11.7156L17.379 12.9566C17.1112 13.2244 17.1112 13.6586 17.379 13.9264L17.79 14.3373C18.0577 14.6051 18.4919 14.6051 18.7597 14.3374L20.0006 13.0963C21.9069 11.1899 24.9977 11.1899 26.904 13.0963ZM13.0966 26.903C15.003 28.8095 18.0937 28.8095 20 26.903L21.241 25.662C21.5087 25.3942 21.943 25.3942 22.2107 25.662L22.6216 26.073C22.8894 26.3408 22.8894 26.775 22.6216 27.0427L21.3807 28.2838C18.7119 30.9528 14.3848 30.9528 11.716 28.2838C9.04715 25.6148 9.04715 21.2876 11.716 18.6186L12.957 17.3776C13.2247 17.1098 13.6589 17.1098 13.9267 17.3776L14.3376 17.7886C14.6054 18.0564 14.6054 18.4906 14.3376 18.7584L13.0966 19.9994C11.1903 21.9058 11.1903 24.9966 13.0966 26.903ZM22.2171 16.4027C22.5183 16.1014 23.0067 16.1014 23.308 16.4027L23.5977 16.6924C23.8989 16.9937 23.8989 17.4822 23.5977 17.7835L17.7853 23.5961C17.4841 23.8974 16.9956 23.8974 16.6944 23.5961L16.4046 23.3064C16.1034 23.0051 16.1034 22.5167 16.4046 22.2154L22.2171 16.4027Z" fill="url(#paint1_linear_361_612)"/>
</g>
<defs>
<linearGradient id="paint0_linear_361_612" x1="20" y1="0" x2="20" y2="40" gradientUnits="userSpaceOnUse">
<stop stop-color="#976E39"/>
<stop offset="1" stop-color="#F2CF98"/>
</linearGradient>
<linearGradient id="paint1_linear_361_612" x1="20.0003" y1="9.71387" x2="20.0003" y2="30.2855" gradientUnits="userSpaceOnUse">
<stop stop-color="#976E39"/>
<stop offset="1" stop-color="#F2CF98"/>
</linearGradient>
<clipPath id="clip0_361_612">
<rect width="40" height="40" fill="white"/>
</clipPath>
</defs>
</svg>
