<svg width="50" height="50" viewBox="0 0 50 50" fill="none" xmlns="http://www.w3.org/2000/svg">
<g clip-path="url(#clip0_817_358)">
<path fill-rule="evenodd" clip-rule="evenodd" d="M25 0C11.2158 0 0 11.2167 0 25C0 38.7833 11.2158 50 25 50C38.7875 50 50 38.7842 50 25C50 11.2158 38.7875 0 25 0ZM25 46.8483C12.9533 46.8483 3.15083 37.0467 3.15083 25C3.15083 12.95 12.9533 3.15167 25 3.15167C37.0492 3.15167 46.8508 12.9508 46.8508 25C46.8508 37.0467 37.0492 46.8483 25 46.8483Z" fill="url(#paint0_linear_817_358)"/>
<path fill-rule="evenodd" clip-rule="evenodd" d="M26.2203 10V13.821H24.2203V10H26.2203ZM33.3114 17.0914L35.9355 14.389L34.5423 12.9542L31.9182 15.6566L33.3114 17.0914ZM14.0649 14.389L16.6891 17.0914L18.0825 15.6566L15.4583 12.9542L14.0649 14.389ZM16.74 31.185V31.2981H16.3509C14.5003 31.2981 13 32.7984 13 34.649C13 36.4997 14.5003 37.9999 16.3509 37.9999H33.6494C35.5 37.9999 37.0003 36.4997 37.0003 34.649C37.0003 32.8595 35.5975 31.3976 33.8315 31.303V31.185V24.2492C33.8315 19.5295 30.0055 15.7034 25.2858 15.7034C20.5661 15.7034 16.74 19.5295 16.74 24.2492V31.185ZM25.2858 17.7034C21.6706 17.7034 18.74 20.634 18.74 24.2492V29.185V31.185H20.74H29.8315H31.8315V29.185V24.2492C31.8315 20.634 28.9009 17.7034 25.2858 17.7034ZM16.3509 33.2981C15.6048 33.2981 15 33.9029 15 34.649C15 35.3951 15.6048 35.9999 16.3509 35.9999H33.6494C34.3954 35.9999 35.0003 35.3951 35.0003 34.649C35.0003 33.9029 34.3954 33.2981 33.6494 33.2981H16.3509Z" fill="white"/>
<path fill-rule="evenodd" clip-rule="evenodd" d="M26.2203 10V13.821H24.2203V10H26.2203ZM33.3114 17.0914L35.9355 14.389L34.5423 12.9542L31.9182 15.6566L33.3114 17.0914ZM14.0649 14.389L16.6891 17.0914L18.0825 15.6566L15.4583 12.9542L14.0649 14.389ZM16.74 31.185V31.2981H16.3509C14.5003 31.2981 13 32.7984 13 34.649C13 36.4997 14.5003 37.9999 16.3509 37.9999H33.6494C35.5 37.9999 37.0003 36.4997 37.0003 34.649C37.0003 32.8595 35.5975 31.3976 33.8315 31.303V31.185V24.2492C33.8315 19.5295 30.0055 15.7034 25.2858 15.7034C20.5661 15.7034 16.74 19.5295 16.74 24.2492V31.185ZM25.2858 17.7034C21.6706 17.7034 18.74 20.634 18.74 24.2492V29.185V31.185H20.74H29.8315H31.8315V29.185V24.2492C31.8315 20.634 28.9009 17.7034 25.2858 17.7034ZM16.3509 33.2981C15.6048 33.2981 15 33.9029 15 34.649C15 35.3951 15.6048 35.9999 16.3509 35.9999H33.6494C34.3954 35.9999 35.0003 35.3951 35.0003 34.649C35.0003 33.9029 34.3954 33.2981 33.6494 33.2981H16.3509Z" fill="url(#paint1_linear_817_358)"/>
</g>
<defs>
<linearGradient id="paint0_linear_817_358" x1="25.0425" y1="0" x2="25.0425" y2="50" gradientUnits="userSpaceOnUse">
<stop stop-color="#9D6833"/>
<stop offset="1" stop-color="#F7D29D"/>
</linearGradient>
<linearGradient id="paint1_linear_817_358" x1="24.9996" y1="45.9985" x2="24.9996" y2="2.00152" gradientUnits="userSpaceOnUse">
<stop stop-color="#EFCC95"/>
<stop offset="1" stop-color="#99703B"/>
</linearGradient>
<clipPath id="clip0_817_358">
<rect width="50" height="50" fill="white"/>
</clipPath>
</defs>
</svg>
