<svg width="50" height="50" viewBox="0 0 50 50" fill="none" xmlns="http://www.w3.org/2000/svg">
<g clip-path="url(#clip0_817_367)">
<path fill-rule="evenodd" clip-rule="evenodd" d="M25 0C11.2158 0 0 11.2167 0 25C0 38.7833 11.2158 50 25 50C38.7875 50 50 38.7842 50 25C50 11.2158 38.7875 0 25 0ZM25 46.8483C12.9533 46.8483 3.15083 37.0467 3.15083 25C3.15083 12.95 12.9533 3.15167 25 3.15167C37.0492 3.15167 46.8508 12.9508 46.8508 25C46.8508 37.0467 37.0492 46.8483 25 46.8483Z" fill="url(#paint0_linear_817_367)"/>
<mask id="path-2-outside-1_817_367" maskUnits="userSpaceOnUse" x="10.0001" y="13" width="30" height="26" fill="black">
<rect fill="white" x="10.0001" y="13" width="30" height="26"/>
<path fill-rule="evenodd" clip-rule="evenodd" d="M31.0223 22.4034H37.2341L26.5471 34.5702L31.0223 22.4034ZM31.2955 21.3298H37.2335L32.3346 15.7581L31.2955 21.3298ZM30.3047 20.5422L31.3245 15.0736H26.1061L30.3047 20.5422ZM23.8913 15.0736H18.6751L19.6942 20.5415L23.8913 15.0736ZM12.7647 21.3298L17.6649 15.7577L18.7035 21.3298H12.7647ZM20.4797 21.3298L24.9988 15.4424L29.5185 21.3298H20.4797ZM20.1635 22.4034H29.8346L24.9985 35.5521L20.1635 22.4034ZM18.9761 22.4034H12.7635L23.4504 34.57L18.9761 22.4034ZM11.0523 22.0929C11.0735 22.1365 11.1003 22.1765 11.1316 22.2123L11.1316 22.2123L24.9988 38L38.8661 22.2123L38.866 22.2122C38.8973 22.1765 38.9241 22.1365 38.9453 22.0929C39.0371 21.9036 39.006 21.6803 38.8658 21.5206L32.421 14.1908C32.3146 14.0698 32.1581 14 31.9929 14H18.0061C17.8409 14 17.6844 14.0698 17.578 14.1908L11.1318 21.5206C10.9916 21.6801 10.9605 21.9034 11.0523 22.0929Z"/>
</mask>
<path fill-rule="evenodd" clip-rule="evenodd" d="M31.0223 22.4034H37.2341L26.5471 34.5702L31.0223 22.4034ZM31.2955 21.3298H37.2335L32.3346 15.7581L31.2955 21.3298ZM30.3047 20.5422L31.3245 15.0736H26.1061L30.3047 20.5422ZM23.8913 15.0736H18.6751L19.6942 20.5415L23.8913 15.0736ZM12.7647 21.3298L17.6649 15.7577L18.7035 21.3298H12.7647ZM20.4797 21.3298L24.9988 15.4424L29.5185 21.3298H20.4797ZM20.1635 22.4034H29.8346L24.9985 35.5521L20.1635 22.4034ZM18.9761 22.4034H12.7635L23.4504 34.57L18.9761 22.4034ZM11.0523 22.0929C11.0735 22.1365 11.1003 22.1765 11.1316 22.2123L11.1316 22.2123L24.9988 38L38.8661 22.2123L38.866 22.2122C38.8973 22.1765 38.9241 22.1365 38.9453 22.0929C39.0371 21.9036 39.006 21.6803 38.8658 21.5206L32.421 14.1908C32.3146 14.0698 32.1581 14 31.9929 14H18.0061C17.8409 14 17.6844 14.0698 17.578 14.1908L11.1318 21.5206C10.9916 21.6801 10.9605 21.9034 11.0523 22.0929Z" fill="white"/>
<path fill-rule="evenodd" clip-rule="evenodd" d="M31.0223 22.4034H37.2341L26.5471 34.5702L31.0223 22.4034ZM31.2955 21.3298H37.2335L32.3346 15.7581L31.2955 21.3298ZM30.3047 20.5422L31.3245 15.0736H26.1061L30.3047 20.5422ZM23.8913 15.0736H18.6751L19.6942 20.5415L23.8913 15.0736ZM12.7647 21.3298L17.6649 15.7577L18.7035 21.3298H12.7647ZM20.4797 21.3298L24.9988 15.4424L29.5185 21.3298H20.4797ZM20.1635 22.4034H29.8346L24.9985 35.5521L20.1635 22.4034ZM18.9761 22.4034H12.7635L23.4504 34.57L18.9761 22.4034ZM11.0523 22.0929C11.0735 22.1365 11.1003 22.1765 11.1316 22.2123L11.1316 22.2123L24.9988 38L38.8661 22.2123L38.866 22.2122C38.8973 22.1765 38.9241 22.1365 38.9453 22.0929C39.0371 21.9036 39.006 21.6803 38.8658 21.5206L32.421 14.1908C32.3146 14.0698 32.1581 14 31.9929 14H18.0061C17.8409 14 17.6844 14.0698 17.578 14.1908L11.1318 21.5206C10.9916 21.6801 10.9605 21.9034 11.0523 22.0929Z" fill="url(#paint1_linear_817_367)"/>
<path d="M37.2341 22.4034L37.4595 22.6014L37.8969 22.1034H37.2341V22.4034ZM31.0223 22.4034V22.1034H30.813L30.7407 22.2999L31.0223 22.4034ZM26.5471 34.5702L26.2656 34.4666L26.7725 34.7682L26.5471 34.5702ZM37.2335 21.3298V21.6298H37.8968L37.4588 21.1317L37.2335 21.3298ZM31.2955 21.3298L31.0006 21.2748L30.9344 21.6298H31.2955V21.3298ZM32.3346 15.7581L32.5599 15.56L32.1527 15.0969L32.0397 15.7031L32.3346 15.7581ZM31.3245 15.0736L31.6194 15.1286L31.6857 14.7736H31.3245V15.0736ZM30.3047 20.5422L30.0667 20.7249L30.4763 21.2584L30.5996 20.5972L30.3047 20.5422ZM26.1061 15.0736V14.7736H25.4976L25.8682 15.2563L26.1061 15.0736ZM18.6751 15.0736V14.7736H18.314L18.3801 15.1286L18.6751 15.0736ZM23.8913 15.0736L24.1293 15.2563L24.4998 14.7736H23.8913V15.0736ZM19.6942 20.5415L19.3993 20.5964L19.5225 21.2578L19.9322 20.7241L19.6942 20.5415ZM17.6649 15.7577L17.9598 15.7027L17.8468 15.0965L17.4396 15.5596L17.6649 15.7577ZM12.7647 21.3298L12.5394 21.1317L12.1013 21.6298H12.7647V21.3298ZM18.7035 21.3298V21.6298H19.0646L18.9984 21.2748L18.7035 21.3298ZM24.9988 15.4424L25.2368 15.2598L24.9988 14.9498L24.7608 15.2598L24.9988 15.4424ZM20.4797 21.3298L20.2417 21.1471L19.8712 21.6298H20.4797V21.3298ZM29.5185 21.3298V21.6298H30.127L29.7564 21.1471L29.5185 21.3298ZM29.8346 22.4034L30.1162 22.507L30.2646 22.1034H29.8346V22.4034ZM20.1635 22.4034V22.1034H19.7336L19.8819 22.507L20.1635 22.4034ZM24.9985 35.5521L24.717 35.6556L24.9985 36.4213L25.2801 35.6556L24.9985 35.5521ZM12.7635 22.4034V22.1034H12.1007L12.5381 22.6014L12.7635 22.4034ZM18.9761 22.4034L19.2577 22.2999L19.1854 22.1034H18.9761V22.4034ZM23.4504 34.57L23.225 34.768L23.7319 34.4665L23.4504 34.57ZM11.1316 22.2123L11.3192 22.4464L11.564 22.2502L11.3571 22.0144L11.1316 22.2123ZM11.0523 22.0929L10.7824 22.2237L10.7824 22.2237L11.0523 22.0929ZM11.1316 22.2123L10.9439 21.9782L10.6991 22.1745L10.9062 22.4103L11.1316 22.2123ZM24.9988 38L24.7734 38.198L24.9988 38.4546L25.2242 38.198L24.9988 38ZM38.8661 22.2123L39.0915 22.4103L39.2985 22.1745L39.0537 21.9783L38.8661 22.2123ZM38.866 22.2122L38.6405 22.0143L38.4335 22.2501L38.6783 22.4463L38.866 22.2122ZM38.9453 22.0929L39.2152 22.2239L39.2152 22.2239L38.9453 22.0929ZM38.8658 21.5206L39.0912 21.3226L39.0911 21.3225L38.8658 21.5206ZM32.421 14.1908L32.1957 14.3889L32.1957 14.3889L32.421 14.1908ZM17.578 14.1908L17.8033 14.389L17.8034 14.3889L17.578 14.1908ZM11.1318 21.5206L11.3571 21.7188L11.3571 21.7187L11.1318 21.5206ZM37.2341 22.1034H31.0223V22.7034H37.2341V22.1034ZM26.7725 34.7682L37.4595 22.6014L37.0087 22.2054L26.3217 34.3722L26.7725 34.7682ZM30.7407 22.2999L26.2656 34.4666L26.8287 34.6738L31.3039 22.507L30.7407 22.2999ZM37.2335 21.0298H31.2955V21.6298H37.2335V21.0298ZM32.1093 15.9561L37.0082 21.5279L37.4588 21.1317L32.5599 15.56L32.1093 15.9561ZM31.5904 21.3848L32.6295 15.8131L32.0397 15.7031L31.0006 21.2748L31.5904 21.3848ZM31.0296 15.0186L30.0098 20.4872L30.5996 20.5972L31.6194 15.1286L31.0296 15.0186ZM26.1061 15.3736H31.3245V14.7736H26.1061V15.3736ZM30.5426 20.3595L26.3441 14.891L25.8682 15.2563L30.0667 20.7249L30.5426 20.3595ZM18.6751 15.3736H23.8913V14.7736H18.6751V15.3736ZM19.9891 20.4865L18.97 15.0187L18.3801 15.1286L19.3993 20.5964L19.9891 20.4865ZM23.6534 14.891L19.4562 20.3588L19.9322 20.7241L24.1293 15.2563L23.6534 14.891ZM17.4396 15.5596L12.5394 21.1317L12.9899 21.5279L17.8902 15.9558L17.4396 15.5596ZM18.9984 21.2748L17.9598 15.7027L17.37 15.8127L18.4086 21.3847L18.9984 21.2748ZM12.7647 21.6298H18.7035V21.0298H12.7647V21.6298ZM24.7608 15.2598L20.2417 21.1471L20.7176 21.5124L25.2368 15.6251L24.7608 15.2598ZM29.7564 21.1471L25.2368 15.2598L24.7608 15.6251L29.2805 21.5125L29.7564 21.1471ZM20.4797 21.6298H29.5185V21.0298H20.4797V21.6298ZM29.8346 22.1034H20.1635V22.7034H29.8346V22.1034ZM25.2801 35.6556L30.1162 22.507L29.5531 22.2999L24.717 35.4485L25.2801 35.6556ZM19.8819 22.507L24.717 35.6556L25.2801 35.4486L20.4451 22.2999L19.8819 22.507ZM12.7635 22.7034H18.9761V22.1034H12.7635V22.7034ZM23.6758 34.3721L12.9889 22.2054L12.5381 22.6014L23.225 34.768L23.6758 34.3721ZM18.6946 22.507L23.1688 34.6736L23.7319 34.4665L19.2577 22.2999L18.6946 22.507ZM11.3571 22.0144C11.3432 21.9985 11.3315 21.981 11.3223 21.962L10.7824 22.2237C10.8155 22.2921 10.8573 22.3546 10.9061 22.4101L11.3571 22.0144ZM11.3192 22.4464L11.3192 22.4464L10.944 21.9782L10.9439 21.9782L11.3192 22.4464ZM25.2242 37.802L11.357 22.0143L10.9062 22.4103L24.7734 38.198L25.2242 37.802ZM38.6407 22.0143L24.7734 37.802L25.2242 38.198L39.0915 22.4103L38.6407 22.0143ZM38.6783 22.4463L38.6784 22.4464L39.0537 21.9783L39.0536 21.9782L38.6783 22.4463ZM38.6754 21.9619C38.6662 21.9808 38.6545 21.9983 38.6405 22.0143L39.0914 22.4102C39.1402 22.3546 39.182 22.2922 39.2152 22.2239L38.6754 21.9619ZM38.6404 21.7186C38.7021 21.7889 38.7137 21.8829 38.6754 21.9619L39.2152 22.2239C39.3605 21.9244 39.31 21.5717 39.0912 21.3226L38.6404 21.7186ZM32.1957 14.3889L38.6405 21.7187L39.0911 21.3225L32.6463 13.9927L32.1957 14.3889ZM31.9929 14.3C32.0742 14.3 32.1478 14.3344 32.1957 14.3889L32.6463 13.9928C32.4814 13.8051 32.2419 13.7 31.9929 13.7V14.3ZM18.0061 14.3H31.9929V13.7H18.0061V14.3ZM17.8034 14.3889C17.8512 14.3344 17.9248 14.3 18.0061 14.3V13.7C17.7571 13.7 17.5176 13.8051 17.3527 13.9928L17.8034 14.3889ZM11.3571 21.7187L17.8033 14.389L17.3527 13.9927L10.9066 21.3225L11.3571 21.7187ZM11.3223 21.962C11.2837 21.8825 11.2956 21.7886 11.3571 21.7188L10.9066 21.3225C10.6875 21.5715 10.6372 21.9242 10.7824 22.2237L11.3223 21.962Z" fill="url(#paint2_linear_817_367)" mask="url(#path-2-outside-1_817_367)"/>
</g>
<defs>
<linearGradient id="paint0_linear_817_367" x1="25.0425" y1="0" x2="25.0425" y2="50" gradientUnits="userSpaceOnUse">
<stop stop-color="#9D6833"/>
<stop offset="1" stop-color="#F7D29D"/>
</linearGradient>
<linearGradient id="paint1_linear_817_367" x1="24.9981" y1="44.856" x2="24.9981" y2="7.14414" gradientUnits="userSpaceOnUse">
<stop stop-color="#EFCC95"/>
<stop offset="1" stop-color="#99703B"/>
</linearGradient>
<linearGradient id="paint2_linear_817_367" x1="24.9988" y1="6" x2="24.9988" y2="47" gradientUnits="userSpaceOnUse">
<stop stop-color="#99703B"/>
<stop offset="1" stop-color="#EFCC95"/>
</linearGradient>
<clipPath id="clip0_817_367">
<rect width="50" height="50" fill="white"/>
</clipPath>
</defs>
</svg>
