<svg width="50" height="50" viewBox="0 0 50 50" fill="none" xmlns="http://www.w3.org/2000/svg">
<g clip-path="url(#clip0_817_377)">
<path fill-rule="evenodd" clip-rule="evenodd" d="M25 0C11.2158 0 0 11.2167 0 25C0 38.7833 11.2158 50 25 50C38.7875 50 50 38.7842 50 25C50 11.2158 38.7875 0 25 0ZM25 46.8483C12.9533 46.8483 3.15083 37.0467 3.15083 25C3.15083 12.95 12.9533 3.15167 25 3.15167C37.0492 3.15167 46.8508 12.9508 46.8508 25C46.8508 37.0467 37.0492 46.8483 25 46.8483Z" fill="url(#paint0_linear_817_377)"/>
<path fill-rule="evenodd" clip-rule="evenodd" d="M31.53 10.9993C29.5533 10.9821 27.6492 11.7427 26.2277 13.117L26.2225 13.1221L26.2173 13.1272L23.9684 15.3652L23.2596 16.0706L24.6703 17.4882L25.3792 16.7828L27.6228 14.5501C28.6667 13.5434 30.0632 12.9866 31.5126 12.9992C32.9642 13.0119 34.353 13.5947 35.3798 14.6225C36.4066 15.6503 36.9892 17.0409 37.0019 18.4948C37.0145 19.9459 36.4582 21.3439 35.453 22.3888L31.5369 26.3087L31.5367 26.3088C30.9753 26.871 30.2997 27.3057 29.5558 27.5835C28.8119 27.8612 28.0171 27.9756 27.2252 27.9188C26.4333 27.8621 25.6628 27.6355 24.966 27.2544C24.2692 26.8734 23.6624 26.3467 23.1867 25.7101L22.5881 24.9091L20.986 26.1063L21.5846 26.9073C22.2319 27.7736 23.0578 28.4904 24.0064 29.0092C24.955 29.5279 26.004 29.8364 27.0822 29.9137C28.1604 29.991 29.2426 29.8353 30.2554 29.4571C31.2682 29.079 32.1878 28.4872 32.9519 27.7221L36.8743 23.7959L36.8805 23.7897L36.8865 23.7835C38.2594 22.3606 39.0189 20.4551 39.0018 18.4774C38.9846 16.4997 38.1921 14.6077 36.7947 13.2089C35.3972 11.8101 33.5066 11.0165 31.53 10.9993ZM22.9191 20.0866C21.8409 20.0093 20.7587 20.165 19.7459 20.5432C18.7332 20.9213 17.8136 21.513 17.0496 22.2781L17.0494 22.2782L13.127 26.2044L13.1209 26.2106L13.1148 26.2168C11.7419 27.6397 10.9824 29.5452 10.9996 31.5229C11.0167 33.5006 11.8092 35.3926 13.2066 36.7914C14.6041 38.1902 16.4947 38.9838 18.4714 39.001C20.448 39.0182 22.3521 38.2576 23.7737 36.8833L23.7799 36.8772L23.7861 36.8711L26.0219 34.6331L26.7287 33.9256L25.3138 32.5121L24.607 33.2195L22.3776 35.4512C21.3337 36.4573 19.9376 37.0137 18.4888 37.0011C17.0371 36.9885 15.6483 36.4056 14.6215 35.3779C13.5947 34.35 13.0121 32.9594 12.9995 31.5055C12.9869 30.0544 13.5431 28.6565 14.5483 27.6116L18.4645 23.6916L18.4646 23.6915C19.026 23.1293 19.7016 22.6946 20.4455 22.4168C21.1894 22.1391 21.9842 22.0247 22.7761 22.0815C23.568 22.1383 24.3385 22.3648 25.0353 22.7459C25.7321 23.127 26.339 23.6536 26.8147 24.2902L27.4133 25.0912L29.0154 23.894L28.4167 23.093C27.7694 22.2267 26.9435 21.5099 25.9949 20.9912C25.0464 20.4724 23.9974 20.1639 22.9191 20.0866Z" fill="url(#paint1_linear_817_377)"/>
</g>
<defs>
<linearGradient id="paint0_linear_817_377" x1="25.0425" y1="0" x2="25.0425" y2="50" gradientUnits="userSpaceOnUse">
<stop stop-color="#9D6833"/>
<stop offset="1" stop-color="#F7D29D"/>
</linearGradient>
<linearGradient id="paint1_linear_817_377" x1="25" y1="47.0006" x2="25" y2="2.99988" gradientUnits="userSpaceOnUse">
<stop stop-color="#EFCC95"/>
<stop offset="1" stop-color="#99703B"/>
</linearGradient>
<clipPath id="clip0_817_377">
<rect width="50" height="50" fill="white"/>
</clipPath>
</defs>
</svg>
