<svg width="50" height="50" viewBox="0 0 50 50" fill="none" xmlns="http://www.w3.org/2000/svg">
<g clip-path="url(#clip0_817_384)">
<path fill-rule="evenodd" clip-rule="evenodd" d="M25 0C11.2158 0 0 11.2167 0 25C0 38.7833 11.2158 50 25 50C38.7875 50 50 38.7842 50 25C50 11.2158 38.7875 0 25 0ZM25 46.8483C12.9533 46.8483 3.15083 37.0467 3.15083 25C3.15083 12.95 12.9533 3.15167 25 3.15167C37.0492 3.15167 46.8508 12.9508 46.8508 25C46.8508 37.0467 37.0492 46.8483 25 46.8483Z" fill="url(#paint0_linear_817_384)"/>
<path fill-rule="evenodd" clip-rule="evenodd" d="M19.1502 13C18.5534 13 17.981 13.2371 17.559 13.6591C17.137 14.0811 16.8999 14.6535 16.8999 15.2503C16.8999 15.8471 17.137 16.4195 17.559 16.8415C17.9609 17.2434 18.499 17.4776 19.0648 17.499H23.6783C23.4993 16.9777 23.2464 16.3517 22.9057 15.7322C22.0704 14.2135 20.8694 13 19.1502 13ZM14.8999 15.2503C14.8999 16.0517 15.1262 16.8298 15.5435 17.499H12.0001C11.4478 17.499 11.0001 17.9467 11.0001 18.499V24.9997C11.0001 25.552 11.4478 25.9997 12.0001 25.9997H13.6V38.0001C13.6 38.5524 14.0477 39.0001 14.6 39.0001H35.4001C35.9524 39.0001 36.4001 38.5524 36.4001 38.0001V25.9997H38.0003C38.5526 25.9997 39.0003 25.552 39.0003 24.9997V18.499C39.0003 17.9467 38.5526 17.499 38.0003 17.499H34.4573C34.8746 16.8298 35.1009 16.0517 35.1009 15.2503C35.1009 14.1231 34.6531 13.042 33.856 12.2449C33.0589 11.4478 31.9778 11 30.8506 11C28.0193 11 26.295 13.0368 25.3427 14.7684C25.2184 14.9943 25.1045 15.2196 25.0004 15.4407C24.8963 15.2196 24.7824 14.9943 24.6581 14.7684C23.7058 13.0368 21.9815 11 19.1502 11C18.023 11 16.9419 11.4478 16.1448 12.2449C15.3477 13.042 14.8999 14.1231 14.8999 15.2503ZM30.936 17.499H26.3225C26.5015 16.9777 26.7544 16.3517 27.0951 15.7322C27.9304 14.2135 29.1315 13 30.8506 13C31.4474 13 32.0198 13.2371 32.4418 13.6591C32.8638 14.0811 33.1009 14.6535 33.1009 15.2503C33.1009 15.8471 32.8638 16.4195 32.4418 16.8415C32.04 17.2434 31.5018 17.4776 30.936 17.499ZM26 19.5006V23.9997H37.0003V19.499H30.968C30.9289 19.5001 30.8898 19.5006 30.8506 19.5006H26ZM13.0001 19.499H19.0328C19.0719 19.5001 19.111 19.5006 19.1502 19.5006H24V23.9997H13.0001V19.499ZM24 25.9997H15.6V37.0001H24V25.9997ZM26 37.0001V25.9997H34.4001V37.0001H26Z" fill="white"/>
<path fill-rule="evenodd" clip-rule="evenodd" d="M19.1502 13C18.5534 13 17.981 13.2371 17.559 13.6591C17.137 14.0811 16.8999 14.6535 16.8999 15.2503C16.8999 15.8471 17.137 16.4195 17.559 16.8415C17.9609 17.2434 18.499 17.4776 19.0648 17.499H23.6783C23.4993 16.9777 23.2464 16.3517 22.9057 15.7322C22.0704 14.2135 20.8694 13 19.1502 13ZM14.8999 15.2503C14.8999 16.0517 15.1262 16.8298 15.5435 17.499H12.0001C11.4478 17.499 11.0001 17.9467 11.0001 18.499V24.9997C11.0001 25.552 11.4478 25.9997 12.0001 25.9997H13.6V38.0001C13.6 38.5524 14.0477 39.0001 14.6 39.0001H35.4001C35.9524 39.0001 36.4001 38.5524 36.4001 38.0001V25.9997H38.0003C38.5526 25.9997 39.0003 25.552 39.0003 24.9997V18.499C39.0003 17.9467 38.5526 17.499 38.0003 17.499H34.4573C34.8746 16.8298 35.1009 16.0517 35.1009 15.2503C35.1009 14.1231 34.6531 13.042 33.856 12.2449C33.0589 11.4478 31.9778 11 30.8506 11C28.0193 11 26.295 13.0368 25.3427 14.7684C25.2184 14.9943 25.1045 15.2196 25.0004 15.4407C24.8963 15.2196 24.7824 14.9943 24.6581 14.7684C23.7058 13.0368 21.9815 11 19.1502 11C18.023 11 16.9419 11.4478 16.1448 12.2449C15.3477 13.042 14.8999 14.1231 14.8999 15.2503ZM30.936 17.499H26.3225C26.5015 16.9777 26.7544 16.3517 27.0951 15.7322C27.9304 14.2135 29.1315 13 30.8506 13C31.4474 13 32.0198 13.2371 32.4418 13.6591C32.8638 14.0811 33.1009 14.6535 33.1009 15.2503C33.1009 15.8471 32.8638 16.4195 32.4418 16.8415C32.04 17.2434 31.5018 17.4776 30.936 17.499ZM26 19.5006V23.9997H37.0003V19.499H30.968C30.9289 19.5001 30.8898 19.5006 30.8506 19.5006H26ZM13.0001 19.499H19.0328C19.0719 19.5001 19.111 19.5006 19.1502 19.5006H24V23.9997H13.0001V19.499ZM24 25.9997H15.6V37.0001H24V25.9997ZM26 37.0001V25.9997H34.4001V37.0001H26Z" fill="url(#paint1_linear_817_384)"/>
</g>
<defs>
<linearGradient id="paint0_linear_817_384" x1="25.0425" y1="0" x2="25.0425" y2="50" gradientUnits="userSpaceOnUse">
<stop stop-color="#9D6833"/>
<stop offset="1" stop-color="#F7D29D"/>
</linearGradient>
<linearGradient id="paint1_linear_817_384" x1="24.9995" y1="46.9986" x2="24.9995" y2="3.0015" gradientUnits="userSpaceOnUse">
<stop stop-color="#EFCC95"/>
<stop offset="1" stop-color="#99703B"/>
</linearGradient>
<clipPath id="clip0_817_384">
<rect width="50" height="50" fill="white"/>
</clipPath>
</defs>
</svg>
