<svg width="50" height="50" viewBox="0 0 50 50" fill="none" xmlns="http://www.w3.org/2000/svg">
<g clip-path="url(#clip0_817_394)">
<path fill-rule="evenodd" clip-rule="evenodd" d="M25 0C11.2158 0 0 11.2167 0 25C0 38.7833 11.2158 50 25 50C38.7875 50 50 38.7842 50 25C50 11.2158 38.7875 0 25 0ZM25 46.8483C12.9533 46.8483 3.15083 37.0467 3.15083 25C3.15083 12.95 12.9533 3.15167 25 3.15167C37.0492 3.15167 46.8508 12.9508 46.8508 25C46.8508 37.0467 37.0492 46.8483 25 46.8483Z" fill="url(#paint0_linear_817_394)"/>
<path fill-rule="evenodd" clip-rule="evenodd" d="M24.9927 10.5303L25.7261 11.3199L32.8006 18.9369C32.8007 18.937 32.8007 18.9371 32.8008 18.9372C34.3336 20.5865 35.3702 22.6796 35.7899 24.9483C36.2096 27.217 35.9954 29.5694 35.172 31.7107C34.3485 33.8524 32.9491 35.6947 31.1398 36.9965C29.3296 38.2991 27.1926 38.9998 24.9996 38.9998C22.8066 38.9998 20.6697 38.2991 18.8594 36.9965C17.0502 35.6947 15.6507 33.8524 14.8272 31.7107C14.0038 29.5694 13.7896 27.217 14.2093 24.9483C14.629 22.6798 15.6655 20.5868 17.1982 18.9375C17.1983 18.9373 17.1985 18.9371 17.1986 18.9369L24.26 11.3205L24.9927 10.5303ZM24.994 13.4706L18.6645 20.2976L18.6636 20.2985C17.3983 21.66 16.529 23.4036 16.1759 25.3121C15.8229 27.2208 16.004 29.1987 16.6939 30.9929C17.3837 32.7867 18.5476 34.3082 20.0275 35.3731C21.5064 36.4372 23.2366 36.9998 24.9996 36.9998C26.7626 36.9998 28.4929 36.4372 29.9717 35.3731C31.4516 34.3082 32.6155 32.7867 33.3053 30.9929C33.9952 29.1987 34.1764 27.2208 33.8233 25.3121C33.4702 23.4036 32.6009 21.66 31.3356 20.2985L31.3354 20.2982L24.994 13.4706Z" fill="white"/>
<path fill-rule="evenodd" clip-rule="evenodd" d="M24.9927 10.5303L25.7261 11.3199L32.8006 18.9369C32.8007 18.937 32.8007 18.9371 32.8008 18.9372C34.3336 20.5865 35.3702 22.6796 35.7899 24.9483C36.2096 27.217 35.9954 29.5694 35.172 31.7107C34.3485 33.8524 32.9491 35.6947 31.1398 36.9965C29.3296 38.2991 27.1926 38.9998 24.9996 38.9998C22.8066 38.9998 20.6697 38.2991 18.8594 36.9965C17.0502 35.6947 15.6507 33.8524 14.8272 31.7107C14.0038 29.5694 13.7896 27.217 14.2093 24.9483C14.629 22.6798 15.6655 20.5868 17.1982 18.9375C17.1983 18.9373 17.1985 18.9371 17.1986 18.9369L24.26 11.3205L24.9927 10.5303ZM24.994 13.4706L18.6645 20.2976L18.6636 20.2985C17.3983 21.66 16.529 23.4036 16.1759 25.3121C15.8229 27.2208 16.004 29.1987 16.6939 30.9929C17.3837 32.7867 18.5476 34.3082 20.0275 35.3731C21.5064 36.4372 23.2366 36.9998 24.9996 36.9998C26.7626 36.9998 28.4929 36.4372 29.9717 35.3731C31.4516 34.3082 32.6155 32.7867 33.3053 30.9929C33.9952 29.1987 34.1764 27.2208 33.8233 25.3121C33.4702 23.4036 32.6009 21.66 31.3356 20.2985L31.3354 20.2982L24.994 13.4706Z" fill="url(#paint1_linear_817_394)"/>
</g>
<defs>
<linearGradient id="paint0_linear_817_394" x1="25.0425" y1="0" x2="25.0425" y2="50" gradientUnits="userSpaceOnUse">
<stop stop-color="#9D6833"/>
<stop offset="1" stop-color="#F7D29D"/>
</linearGradient>
<linearGradient id="paint1_linear_817_394" x1="24.9991" y1="47.1325" x2="24.9991" y2="2.39766" gradientUnits="userSpaceOnUse">
<stop stop-color="#EFCC95"/>
<stop offset="1" stop-color="#99703B"/>
</linearGradient>
<clipPath id="clip0_817_394">
<rect width="50" height="50" fill="white"/>
</clipPath>
</defs>
</svg>
