<svg width="32" height="24" viewBox="0 0 32 24" fill="none" xmlns="http://www.w3.org/2000/svg">
<path d="M21.0794 13.2615L21.7322 8.99523H17.6426V6.22659C17.6143 5.90854 17.6579 5.5882 17.7699 5.28921C17.882 4.99022 18.0597 4.7202 18.2901 4.49907C18.5204 4.27795 18.7975 4.11135 19.1008 4.01158C19.4041 3.9118 19.726 3.88139 20.0426 3.92259H21.9031V0.289953C20.8106 0.114785 19.707 0.0185358 18.6007 0.00195312C15.2272 0.00195312 13.024 2.04579 13.024 5.74467V8.99619H9.28003V13.2615H13.024V23.5748C14.5504 23.8128 16.1056 23.8128 17.632 23.5748V13.2615H21.0784H21.0794Z" fill="#8D8B8B"/>
</svg>
