<svg width="32" height="24" viewBox="0 0 32 24" fill="none" xmlns="http://www.w3.org/2000/svg">
<path d="M27.2985 12.1237C27.2985 13.6062 27.3161 15.0868 27.2921 16.5683C27.3057 17.7097 27.0641 18.8397 26.585 19.8757C26.1725 20.7544 25.5427 21.5132 24.7551 22.0805C23.9675 22.6478 23.0481 23.0048 22.0841 23.1176C21.1056 23.2588 20.1179 23.3299 19.1302 23.328C16.7154 23.3456 14.3016 23.328 11.8877 23.2902C10.5861 23.3235 9.29637 23.0343 8.13359 22.4483C7.39153 22.0503 6.74577 21.4944 6.2418 20.8197C5.73782 20.1451 5.3879 19.3682 5.21667 18.5437C4.98458 17.4012 4.88607 16.2355 4.92313 15.0702C4.9139 12.7034 4.92959 10.3348 4.95636 7.96803C4.94099 6.92194 5.11293 5.88154 5.46405 4.89603C5.79911 3.93322 6.39049 3.08006 7.1745 2.42845C7.95851 1.77685 8.90544 1.35148 9.91329 1.19818C10.9968 1.01744 12.0936 0.929125 13.1921 0.934181C15.5588 0.904642 17.9274 0.934181 20.2942 0.96095C21.3591 0.945444 22.4179 1.12405 23.4188 1.48803C24.3472 1.81904 25.1717 2.3895 25.8088 3.14163C26.4458 3.89376 26.8728 4.80087 27.0465 5.7711C27.2269 6.80776 27.3226 7.85738 27.3327 8.90957C27.3797 9.97941 27.3437 11.052 27.3437 12.1237H27.2985ZM25.3047 12.1394H25.2641C25.2641 11.1139 25.2871 10.0883 25.2576 9.06372C25.2512 8.17889 25.1896 7.29532 25.073 6.41818C24.9715 5.60382 24.6016 4.84646 24.0217 4.26575C23.4419 3.68503 22.685 3.31406 21.8708 3.21141C21.0153 3.08169 20.1515 3.01351 19.2862 3.00741C17.1792 2.98108 15.072 2.98108 12.965 3.00741C12.1816 3.01357 11.4016 3.06741 10.625 3.16895C9.73552 3.24306 8.90087 3.62915 8.26848 4.259C7.63609 4.88886 7.24666 5.72195 7.16898 6.6111C7.06497 7.38685 7.0104 8.16843 7.00559 8.9511C6.98347 11.0674 6.98347 13.1838 7.00559 15.3C7.01052 16.0933 7.06559 16.8825 7.17082 17.6677C7.248 18.5522 7.63516 19.3809 8.26395 20.0077C8.89274 20.6345 9.72274 21.0189 10.6074 21.0933C11.4868 21.1991 12.3699 21.2529 13.2567 21.2548C15.1865 21.2776 17.1164 21.2776 19.0462 21.2548C19.9592 21.2517 20.8711 21.1922 21.7767 21.0766C22.4025 21.0128 23.0012 20.7885 23.515 20.4254C24.0287 20.0624 24.4401 19.5729 24.7093 19.0043C25.0159 18.3727 25.1815 17.682 25.1948 16.98C25.2401 15.3637 25.2668 13.752 25.3028 12.1394H25.3047ZM16.1413 6.3471C17.2848 6.34802 18.4024 6.68792 19.3527 7.32384C20.3031 7.95977 21.0436 8.86317 21.4807 9.91986C21.9177 10.9766 22.0317 12.1391 21.8082 13.2606C21.5847 14.382 21.0337 15.412 20.2249 16.2204C19.4162 17.0288 18.3859 17.5793 17.2643 17.8022C16.1428 18.0252 14.9803 17.9107 13.9238 17.4731C12.8673 17.0356 11.9643 16.2946 11.3288 15.3439C10.6933 14.3933 10.354 13.2755 10.3536 12.132C10.3616 10.5998 10.974 9.13257 12.0578 8.04934C13.1415 6.96611 14.609 6.35438 16.1413 6.3471ZM19.8336 12.1413C19.8373 11.1572 19.4499 10.212 18.7567 9.51362C18.0634 8.8152 17.1212 8.42078 16.1371 8.4171C15.1531 8.41343 14.2079 8.80082 13.5095 9.49404C12.8111 10.1873 12.4167 11.1295 12.413 12.1136C12.4096 13.0978 12.7973 14.0432 13.4908 14.7416C14.1844 15.44 15.127 15.8343 16.1113 15.8377C17.0956 15.8411 18.0409 15.4534 18.7393 14.7599C19.4377 14.0663 19.832 13.1237 19.8354 12.1394L19.8336 12.1413ZM23.4336 6.14126C23.4381 5.82752 23.3336 5.52193 23.1379 5.27666C22.9422 5.03138 22.6675 4.86162 22.3606 4.79634C22.0537 4.73106 21.7336 4.77431 21.455 4.91871C21.1765 5.0631 20.9566 5.2997 20.8331 5.58812C20.7095 5.87654 20.6899 6.1989 20.7775 6.50019C20.8651 6.80148 21.0546 7.06302 21.3136 7.24018C21.5725 7.41734 21.885 7.49914 22.1975 7.47162C22.5101 7.44409 22.8034 7.30895 23.0274 7.08926C23.2831 6.84003 23.4308 6.49849 23.4373 6.13941L23.4336 6.14126Z" fill="#8D8B8B"/>
</svg>
