<svg width="32" height="24" viewBox="0 0 32 24" fill="none" xmlns="http://www.w3.org/2000/svg">
<path d="M16.64 1.5C10.993 1.5 8 5.288 8 9.41C8 11.336 9.021 13.715 10.657 14.479C10.905 14.597 11.045 14.543 11.099 14.307C11.142 14.124 11.369 13.231 11.465 12.823C11.4847 12.7581 11.4871 12.6892 11.472 12.6231C11.4569 12.557 11.4249 12.4959 11.379 12.446C10.7514 11.5786 10.4128 10.5356 10.411 9.465C10.4088 8.69954 10.5619 7.94159 10.861 7.23699C11.1601 6.53238 11.599 5.89577 12.1511 5.36565C12.7033 4.83553 13.3573 4.42293 14.0735 4.15279C14.7897 3.88265 15.5533 3.76059 16.318 3.794C17.0343 3.75094 17.7518 3.85776 18.4245 4.10766C19.0972 4.35755 19.7104 4.74502 20.2249 5.2453C20.7394 5.74558 21.1438 6.34768 21.4125 7.01313C21.6811 7.67858 21.808 8.39274 21.785 9.11C21.785 12.64 19.998 15.093 17.675 15.093C17.3778 15.108 17.0812 15.053 16.8091 14.9324C16.5371 14.8118 16.2972 14.629 16.1087 14.3987C15.9202 14.1684 15.7885 13.897 15.7241 13.6065C15.6597 13.316 15.6645 13.0144 15.738 12.726C16.2254 11.3074 16.5891 9.8493 16.825 8.368C16.8533 8.13503 16.8314 7.8987 16.7607 7.67491C16.69 7.45113 16.5722 7.24508 16.4152 7.07065C16.2582 6.89621 16.0656 6.75744 15.8505 6.66366C15.6354 6.56989 15.4027 6.52329 15.168 6.527C13.856 6.527 12.8 7.883 12.8 9.702C12.7933 10.3675 12.9251 11.0271 13.187 11.639C13.187 11.639 11.896 17.117 11.659 18.139C11.4575 19.3815 11.4434 20.6473 11.617 21.894L11.592 21.883L11.609 21.923C11.9 22.03 12.191 22.138 12.491 22.223C13.1819 21.1572 13.7277 20.004 14.114 18.794L14.932 15.684C15.2629 16.1672 15.7107 16.5587 16.2336 16.8222C16.7566 17.0857 17.3378 17.2126 17.923 17.191C21.863 17.191 24.703 13.564 24.703 9.055C24.7 4.729 21.172 1.5 16.64 1.5Z" fill="#8D8B8B"/>
</svg>
