<svg width="24" height="24" viewBox="0 0 24 24" fill="none" xmlns="http://www.w3.org/2000/svg">
<path d="M21.6905 18.8328C21.6905 18.8328 21.5731 20.5555 20.0069 20.5555C18.7974 20.5555 17.9714 19.633 17.198 18.4351C19.3949 16.5175 20.7899 13.6539 20.7899 10.4539C20.79 4.6804 16.2498 0 10.6493 0C5.04871 0 0.508545 4.6804 0.508545 10.454C0.508545 16.2276 5.04871 20.908 10.6493 20.908C11.6657 20.908 12.6468 20.7531 13.5726 20.4663C14.7438 22.327 16.2306 24 18.5583 24C23.2958 24 23.4916 18.8328 23.4916 18.8328H21.6905V18.8328ZM10.6493 19.1852C7.38405 19.1852 4.73709 15.2761 4.73709 10.454C4.73709 5.63188 7.38405 1.72276 10.6493 1.72276C13.9145 1.72276 16.5614 5.63188 16.5614 10.454C16.5614 12.3715 16.1425 14.1442 15.433 15.5846C14.6315 14.4403 13.6693 13.4658 12.2937 13.1556C9.85341 12.6053 7.75191 13.7037 7.08629 14.2519L7.71274 15.5439C7.71274 15.5439 8.34603 15.1798 9.91632 15.5435C10.9057 15.7726 11.6746 17.1457 12.5558 18.721C11.9577 19.0218 11.3164 19.1852 10.6493 19.1852Z" fill="#8D8B8B"/>
</svg>
