<svg width="24" height="24" viewBox="0 0 24 24" fill="none" xmlns="http://www.w3.org/2000/svg">
<path d="M20.864 5.44898C19.8076 5.37403 18.8115 4.92893 18.051 4.19198C17.2904 3.45503 16.8142 2.47346 16.706 1.41998L16.606 0.500977H11.688V1.52498L11.658 16.025C11.6643 16.3254 11.6106 16.6241 11.5 16.9036C11.3894 17.183 11.2241 17.4375 11.0138 17.6523C10.8036 17.867 10.5526 18.0376 10.2755 18.154C9.9985 18.2705 9.701 18.3305 9.40048 18.3305C9.09996 18.3305 8.80246 18.2705 8.52542 18.154C8.24838 18.0376 7.99738 17.867 7.78712 17.6523C7.57687 17.4375 7.41159 17.183 7.30098 16.9036C7.19037 16.6241 7.13666 16.3254 7.14298 16.025V15.986C7.14298 15.979 7.14898 15.973 7.14898 15.967C7.15365 15.6137 7.24232 15.2666 7.40766 14.9543C7.57299 14.6421 7.81026 14.3736 8.09984 14.1712C8.38943 13.9687 8.72302 13.8381 9.07307 13.7901C9.42312 13.7421 9.77957 13.778 10.113 13.895V8.72098C9.85631 8.67409 9.5959 8.65066 9.33498 8.65098C7.88445 8.65098 6.4665 9.08111 5.26043 9.88698C4.05436 10.6928 3.11434 11.8383 2.55925 13.1784C2.00415 14.5185 1.85892 15.9931 2.1419 17.4158C2.42488 18.8384 3.12338 20.1452 4.14906 21.1709C5.17474 22.1966 6.48153 22.8951 7.90419 23.1781C9.32684 23.461 10.8015 23.3158 12.1416 22.7607C13.4817 22.2056 14.6271 21.2656 15.433 20.0595C16.2388 18.8535 16.669 17.4355 16.669 15.985V9.90298C17.732 10.898 20.132 11.145 21.817 10.869V5.52098L20.864 5.44898Z" fill="#8D8B8B"/>
</svg>
