<svg width="31" height="24" viewBox="0 0 31 24" fill="none" xmlns="http://www.w3.org/2000/svg">
<path d="M29.07 11.974C29.084 14.1588 28.8952 16.3402 28.506 18.49C28.3516 19.0637 28.0492 19.5867 27.629 20.0067C27.2089 20.4267 26.6857 20.7289 26.112 20.883C24.001 21.449 15.535 21.449 15.535 21.449C15.535 21.449 7.07 21.449 4.959 20.883C4.38527 20.7289 3.86211 20.4267 3.44195 20.0067C3.02179 19.5867 2.71937 19.0637 2.565 18.49C1.81053 14.1788 1.81053 9.76926 2.565 5.45802C2.71937 4.88436 3.02179 4.36133 3.44195 3.94134C3.86211 3.52136 4.38527 3.21916 4.959 3.06502C7.069 2.49902 15.535 2.49902 15.535 2.49902C15.535 2.49902 24 2.49902 26.112 3.06502C26.6857 3.21916 27.2089 3.52136 27.629 3.94134C28.0492 4.36133 28.3516 4.88436 28.506 5.45802C28.896 7.60802 29.084 9.78902 29.07 11.974ZM12.83 16.035L19.864 11.975L12.83 7.91502V16.035Z" fill="#8D8B8B"/>
</svg>
